<svg xmlns="http://www.w3.org/2000/svg"
     style="overflow: hidden; touch-action: none; user-select: none; -webkit-user-drag: none; -webkit-tap-highlight-color: rgba(0, 0, 0, 0);"
     viewBox="0 0 2427 1078">
  <g id="viewport-20240118114627905" 
   >
    <svg xmlns="http://www.w3.org/2000/svg" id="Layer_2" viewBox="0 0 506.79 470.21">
      <defs>
        <pattern width="20" height="20" patternUnits="userSpaceOnUse">
          <pattern id="unavailable-1" width="20" height="20" patternUnits="userSpaceOnUse">
            <g fill="none" fill-rule="evenodd">
              <path fill="#FF0000" d="M0 0h20v20H0z" opacity=".551"/>
              <path stroke="#FF4A4A" stroke-width="2" d="M0 20 20 0"/>
            </g>
          </pattern>
        </pattern>
        <style>.cls-1, .cls-2 {
          stroke-width: 0px;
        }

        .cls-1, .cls-3 {
          fill: #22242d;
        }

        .cls-2 {
          fill: #fff;
        }

        .cls-3, .cls-4 {
          stroke: #c4c4c4;
          stroke-miterlimit: 10;
          stroke-width: 2px;
        }

        .cls-4 {
          fill: none;
        }</style>
      </defs>
      <path id="Floor_BG" d="M3 3h500.79v464.11H3z" class="cls-1" style="fill: rgb(245, 245, 245);"/>
      <g id="Bookable_Slots">
        <path id="P01" d="M170.87 80.86h94.78v25.83h-94.78z" class="cls-3"
              style="fill: url(&quot;#unavailable-1&quot;) rgb(215, 6, 59); cursor: pointer; stroke: rgb(116, 119, 130);"/>
        <path id="P02" d="M170.87 106.69h94.78v25.83h-94.78z" class="cls-3"
              style="fill: url(&quot;#unavailable-1&quot;) rgb(215, 6, 59); cursor: pointer; stroke: rgb(116, 119, 130);"/>
        <path id="P03" d="M170.87 132.52h94.78v25.83h-94.78z" class="cls-3"
              style="fill: url(&quot;#unavailable-1&quot;) rgb(215, 6, 59); cursor: pointer; stroke: rgb(116, 119, 130);"/>
        <path id="P04" d="M170.87 158.36h94.78v25.83h-94.78z" class="cls-3"
              style="fill: url(&quot;#unavailable-1&quot;) rgb(215, 6, 59); cursor: pointer; stroke: rgb(116, 119, 130);"/>
        <path id="P05" d="M170.87 184.19h94.78v25.83h-94.78z" class="cls-3"
              style="fill: url(&quot;#unavailable-1&quot;) rgb(215, 6, 59); cursor: pointer; stroke: rgb(116, 119, 130);"/>
        <path id="P06" d="M170.87 210.03h94.78v25.83h-94.78z" class="cls-3"
              style="fill: url(&quot;#unavailable-1&quot;) rgb(215, 6, 59); cursor: pointer; stroke: rgb(116, 119, 130);"/>
        <path id="P07" d="M170.87 235.86h94.78v25.83h-94.78z" class="cls-3"
              style="fill: url(&quot;#unavailable-1&quot;) rgb(215, 6, 59); cursor: pointer; stroke: rgb(116, 119, 130);"/>
        <path id="P08" d="M170.87 261.7h94.78v25.83h-94.78z" class="cls-3"
              style="fill: url(&quot;#unavailable-1&quot;) rgb(215, 6, 59); cursor: pointer; stroke: rgb(116, 119, 130);"/>
        <path id="P09" d="M170.87 287.53h94.78v25.83h-94.78z" class="cls-3"
              style="fill: url(&quot;#unavailable-1&quot;) rgb(215, 6, 59); cursor: pointer; stroke: rgb(116, 119, 130);"/>
        <path id="P10" d="M170.87 313.37h94.78v25.83h-94.78z" class="cls-3"
              style="fill: url(&quot;#unavailable-1&quot;) rgb(215, 6, 59); cursor: pointer; stroke: rgb(116, 119, 130);"/>
        <path id="P11" d="M265.65 80.86h94.78v25.83h-94.78z" class="cls-3"
              style="fill: url(&quot;#unavailable-1&quot;) rgb(215, 6, 59); cursor: pointer; stroke: rgb(116, 119, 130);"/>
        <path id="P12" d="M265.65 106.69h94.78v25.83h-94.78z" class="cls-3"
              style="fill: rgb(126, 211, 33); cursor: pointer; stroke: rgb(116, 119, 130);"/>
        <path id="P13" d="M265.65 132.52h94.78v25.83h-94.78z" class="cls-3"
              style="fill: url(&quot;#unavailable-1&quot;) rgb(215, 6, 59); cursor: pointer; stroke: rgb(116, 119, 130);"/>
        <path id="P14" d="M265.65 158.36h94.78v25.83h-94.78z" class="cls-3"
              style="fill: url(&quot;#unavailable-1&quot;) rgb(215, 6, 59); cursor: pointer; stroke: rgb(116, 119, 130);"/>
        <path id="P15" d="M265.65 184.19h94.78v25.83h-94.78z" class="cls-3"
              style="fill: rgb(126, 211, 33); cursor: pointer; stroke: rgb(116, 119, 130);"/>
        <path id="P16" d="M265.65 210.03h94.78v25.83h-94.78z" class="cls-3"
              style="fill: url(&quot;#unavailable-1&quot;) rgb(215, 6, 59); cursor: pointer; stroke: rgb(116, 119, 130);"/>
        <path id="P17" d="M265.65 235.86h94.78v25.83h-94.78z" class="cls-3"
              style="fill: rgb(126, 211, 33); cursor: pointer; stroke: rgb(116, 119, 130);"/>
        <path id="P18" d="M265.65 261.7h94.78v25.83h-94.78z" class="cls-3"
              style="fill: rgb(126, 211, 33); cursor: pointer; stroke: rgb(116, 119, 130);"/>
        <path id="P19" d="M265.65 287.53h94.78v25.83h-94.78z" class="cls-3"
              style="fill: url(&quot;#unavailable-1&quot;) rgb(215, 6, 59); cursor: pointer; stroke: rgb(116, 119, 130);"/>
        <path id="P20" d="M265.65 313.37h94.78v25.83h-94.78z" class="cls-3"
              style="fill: url(&quot;#unavailable-1&quot;) rgb(215, 6, 59); cursor: pointer; stroke: rgb(116, 119, 130);"/>
        <path id="P100" d="M53 80.86h94.78v25.83H53z" class="cls-4"
              style="fill: rgb(196, 196, 196); cursor: pointer; stroke: rgb(116, 119, 130);"/>
        <path id="P227" d="M53 106.69h94.78v25.83H53z" class="cls-4"
              style="fill: url(&quot;#unavailable-1&quot;) rgb(215, 6, 59); cursor: pointer; stroke: rgb(116, 119, 130);"/>
        <path id="P228" d="M53 132.52h94.78v25.83H53z" class="cls-4"
              style="fill: rgb(196, 196, 196); cursor: pointer; stroke: rgb(116, 119, 130);"/>
        <path id="P229" d="M53 158.36h94.78v25.83H53z" class="cls-4"
              style="fill: rgb(196, 196, 196); cursor: pointer; stroke: rgb(116, 119, 130);"/>
        <path id="P230" d="M53 184.19h94.78v25.83H53z" class="cls-4"
              style="fill: rgb(196, 196, 196); cursor: pointer; stroke: rgb(116, 119, 130);"/>
        <path id="P235" d="M53 210.03h94.78v25.83H53z" class="cls-4"
              style="fill: url(&quot;#unavailable-1&quot;) rgb(215, 6, 59); cursor: pointer; stroke: rgb(116, 119, 130);"/>
        <path id="P244" d="M53 235.86h94.78v25.83H53z" class="cls-4"
              style="fill: url(&quot;#unavailable-1&quot;) rgb(215, 6, 59); cursor: pointer; stroke: rgb(116, 119, 130);"/>
        <path id="P307" d="M53 261.7h94.78v25.83H53z" class="cls-4"
              style="fill: rgb(196, 196, 196); cursor: pointer; stroke: rgb(116, 119, 130);"/>
        <path id="P309" d="M53 287.53h94.78v25.83H53z" class="cls-4"
              style="fill: rgb(196, 196, 196); cursor: pointer; stroke: rgb(116, 119, 130);"/>
        <path id="P106A" d="M53 313.37h94.78v25.83H53z" class="cls-4"
              style="fill: rgb(196, 196, 196); cursor: pointer; stroke: rgb(116, 119, 130);"/>
        <path id="P107" d="M53 339.2h94.78v25.83H53z" class="cls-4"
              style="fill: rgb(196, 196, 196); cursor: pointer; stroke: rgb(116, 119, 130);"/>
        <path id="P109" d="M53 365.03h94.78v25.83H53z" class="cls-4"
              style="fill: rgb(196, 196, 196); cursor: pointer; stroke: rgb(116, 119, 130);"/>
        <path id="P110" d="M53 390.87h94.78v25.83H53z" class="cls-4"
              style="fill: rgb(196, 196, 196); cursor: pointer; stroke: rgb(116, 119, 130);"/>
        <path id="P21" d="M360.43 80.86h94.78v25.83h-94.78z" class="cls-3"
              style="fill: url(&quot;#unavailable-1&quot;) rgb(215, 6, 59); cursor: pointer; stroke: rgb(116, 119, 130);"/>
        <path id="P22" d="M360.43 106.69h94.78v25.83h-94.78z" class="cls-3"
              style="fill: rgb(126, 211, 33); cursor: pointer; stroke: rgb(116, 119, 130);"/>
        <path id="P23" d="M360.43 132.52h94.78v25.83h-94.78z" class="cls-3"
              style="fill: rgb(126, 211, 33); cursor: pointer; stroke: rgb(116, 119, 130);"/>
        <path id="P24" d="M360.43 158.36h94.78v25.83h-94.78z" class="cls-3"
              style="fill: url(&quot;#unavailable-1&quot;) rgb(215, 6, 59); cursor: pointer; stroke: rgb(116, 119, 130);"/>
        <path id="P25" d="M360.43 184.19h94.78v25.83h-94.78z" class="cls-3"
              style="fill: rgb(126, 211, 33); cursor: pointer; stroke: rgb(116, 119, 130);"/>
        <path id="P26" d="M360.43 210.03h94.78v25.83h-94.78z" class="cls-3"
              style="fill: rgb(126, 211, 33); cursor: pointer; stroke: rgb(116, 119, 130);"/>
        <path id="P27" d="M360.43 235.86h94.78v25.83h-94.78z" class="cls-3"
              style="fill: rgb(126, 211, 33); cursor: pointer; stroke: rgb(116, 119, 130);"/>
        <path id="P28" d="M360.43 261.7h94.78v25.83h-94.78z" class="cls-3"
              style="fill: rgb(126, 211, 33); cursor: pointer; stroke: rgb(116, 119, 130);"/>
        <path id="P29" d="M360.43 287.53h94.78v25.83h-94.78z" class="cls-3"
              style="fill: rgb(126, 211, 33); cursor: pointer; stroke: rgb(116, 119, 130);"/>
        <path id="P30" d="M360.43 313.37h94.78v25.83h-94.78z" class="cls-3"
              style="fill: url(&quot;#unavailable-1&quot;) rgb(215, 6, 59); cursor: pointer; stroke: rgb(116, 119, 130);"/>
      </g>
      <g id="Desk_Labels">
        <path
          d="M214.09 94.33c0-1.63.51-2.93 2.09-2.93s2.09 1.3 2.09 2.93-.52 2.94-2.09 2.94-2.09-1.31-2.09-2.94Zm3.1 0c0-1.1-.23-1.98-1.01-1.98s-1.01.87-1.01 1.98.23 2 1.01 2 1.01-.88 1.01-2ZM219.18 96.28h1.25v-3.53h-.02s-.06.14-.25.32l-.46.43-.62-.64 1.44-1.37h.92v4.79h1.25v.89h-3.52v-.89ZM213.82 120.16c0-1.63.51-2.93 2.09-2.93s2.09 1.3 2.09 2.93-.52 2.94-2.09 2.94-2.09-1.31-2.09-2.94Zm3.1 0c0-1.1-.23-1.98-1.01-1.98s-1.01.87-1.01 1.98.23 2 1.01 2 1.01-.88 1.01-2ZM218.87 122.5c0-2.05 2.7-2.37 2.7-3.5 0-.5-.39-.79-.88-.79-.67 0-1.04.67-1.04.67l-.78-.51s.53-1.14 1.91-1.14c1.01 0 1.88.61 1.88 1.68 0 1.82-2.58 2.13-2.61 3.21h2.69v.89h-3.82c-.02-.18-.05-.34-.05-.5ZM213.84 146c0-1.63.51-2.93 2.09-2.93s2.09 1.3 2.09 2.93-.52 2.94-2.09 2.94-2.09-1.31-2.09-2.94Zm3.1 0c0-1.1-.23-1.98-1.01-1.98s-1.01.87-1.01 1.98.23 2 1.01 2 1.01-.88 1.01-2ZM219.31 147.39s.54.58 1.31.58c.6 0 1.04-.36 1.04-.85 0-.6-.56-.88-1.23-.88h-.4l-.24-.53 1.06-1.23c.23-.26.41-.43.41-.43v-.02s-.17.02-.51.02h-1.72v-.89h3.52v.65l-1.41 1.61c.8.11 1.57.67 1.57 1.66s-.75 1.86-2.03 1.86-1.91-.76-1.91-.76l.54-.79ZM213.65 171.83c0-1.63.51-2.93 2.09-2.93s2.09 1.3 2.09 2.93-.52 2.94-2.09 2.94-2.09-1.31-2.09-2.94Zm3.1 0c0-1.1-.23-1.98-1.01-1.98s-1.01.87-1.01 1.98.23 2 1.01 2 1.01-.88 1.01-2ZM218.52 172.58 221 169h1.24v3.36h.75v.86h-.75v1.46h-1.03v-1.46h-2.69v-.63Zm2.69-.22v-1.76c0-.28.04-.59.04-.59h-.02s-.13.3-.28.52l-1.33 1.82v.02h1.59ZM213.86 197.66c0-1.63.51-2.93 2.09-2.93s2.09 1.3 2.09 2.93-.52 2.94-2.09 2.94-2.09-1.31-2.09-2.94Zm3.1 0c0-1.1-.23-1.97-1.01-1.97s-1.01.87-1.01 1.97.23 2 1.01 2 1.01-.88 1.01-2ZM219.39 199.06s.48.57 1.23.57c.56 0 1.09-.37 1.09-.97s-.5-.98-1.16-.98c-.51 0-.89.24-.89.24l-.58-.21.27-2.88h3.03v.89h-2.13l-.09.94-.04.26h.02s.27-.13.62-.13c1.27 0 2.03.84 2.03 1.86 0 1.12-.88 1.95-2.08 1.95s-1.84-.77-1.84-.77l.54-.78ZM213.72 223.5c0-1.63.51-2.93 2.09-2.93s2.09 1.3 2.09 2.93-.52 2.94-2.09 2.94-2.09-1.31-2.09-2.94Zm3.1 0c0-1.1-.23-1.98-1.01-1.98s-1.01.87-1.01 1.98.23 2 1.01 2 1.01-.88 1.01-2ZM218.8 223.75c0-1.49.87-3.17 2.65-3.17.73 0 1.18.24 1.18.24l-.31.89s-.37-.18-.81-.18c-.91 0-1.39.74-1.53 1.52h.02c.2-.23.67-.4 1.08-.4 1.14 0 1.85.87 1.85 1.9s-.76 1.9-1.9 1.9c-1.2 0-2.22-.98-2.22-2.69Zm3.08.79c0-.58-.37-1.05-1.06-1.05-.52 0-.94.26-.94.62 0 .71.53 1.39 1.14 1.39.54 0 .86-.42.86-.96ZM213.96 249.33c0-1.63.51-2.93 2.09-2.93s2.09 1.3 2.09 2.93-.52 2.94-2.09 2.94-2.09-1.31-2.09-2.94Zm3.1 0c0-1.1-.23-1.98-1.01-1.98s-1.01.87-1.01 1.98.23 2 1.01 2 1.01-.88 1.01-2ZM221.4 247.91c.18-.35.35-.52.35-.52v-.02s-.11.02-.4.02h-2.46v-.89h3.96v.72l-2.52 4.96h-1.09l2.16-4.27ZM213.69 275.17c0-1.63.51-2.93 2.09-2.93s2.09 1.3 2.09 2.93-.52 2.94-2.09 2.94-2.09-1.31-2.09-2.94Zm3.1 0c0-1.1-.23-1.98-1.01-1.98s-1.01.87-1.01 1.98.23 2 1.01 2 1.01-.88 1.01-2ZM219.62 274.9a1.33 1.33 0 0 1-.59-1.11c0-.78.58-1.55 1.85-1.55 1.07 0 1.87.59 1.87 1.58 0 .7-.58 1.34-.64 1.4.42.26.74.62.74 1.21 0 .87-.74 1.69-2.03 1.69s-2.06-.77-2.06-1.74c0-.81.69-1.34.87-1.46Zm.74.42c-.19.15-.54.49-.54.96 0 .54.46.91.99.91s.97-.32.97-.82-.72-.72-1.42-1.05Zm.97-.49c.08-.09.39-.46.39-.96 0-.44-.34-.72-.86-.72s-.8.29-.8.66c0 .52.62.74 1.27 1.02ZM213.72 301c0-1.63.51-2.93 2.09-2.93s2.09 1.3 2.09 2.93-.52 2.94-2.09 2.94-2.09-1.31-2.09-2.94Zm3.1 0c0-1.1-.23-1.98-1.01-1.98s-1.01.87-1.01 1.98.23 2 1.01 2 1.01-.88 1.01-2ZM219.01 303.7l.31-.89s.37.18.8.18c.91 0 1.4-.74 1.54-1.52h-.02c-.2.23-.67.4-1.09.4-1.14 0-1.84-.88-1.84-1.9s.75-1.9 1.9-1.9c1.2 0 2.22.98 2.22 2.69 0 1.49-.87 3.17-2.65 3.17-.73 0-1.18-.24-1.18-.24Zm2.74-3.29c0-.71-.54-1.39-1.14-1.39-.54 0-.87.42-.87.95 0 .58.37 1.06 1.06 1.06.52 0 .94-.27.94-.62ZM214.07 328.8h1.25v-3.53h-.02s-.06.14-.25.32l-.46.43-.62-.64 1.44-1.37h.92v4.79h1.25v.89h-3.52v-.89ZM218.25 326.84c0-1.63.51-2.93 2.09-2.93s2.09 1.3 2.09 2.93-.52 2.94-2.09 2.94-2.09-1.31-2.09-2.94Zm3.1 0c0-1.1-.23-1.98-1.01-1.98s-1.01.87-1.01 1.98.23 2 1.01 2 1.01-.88 1.01-2ZM309.32 96.28h1.25v-3.53h-.02s-.06.14-.25.32l-.46.43-.62-.64 1.44-1.37h.92v4.79h1.25v.89h-3.52v-.89ZM313.48 96.28h1.25v-3.53h-.02s-.06.14-.25.32l-.46.43-.62-.64 1.44-1.37h.92v4.79h1.25v.89h-3.52v-.89ZM309.05 122.12h1.25v-3.53h-.02s-.06.14-.25.32l-.46.43-.62-.64 1.44-1.37h.92v4.79h1.25v.89h-3.52v-.89ZM313.17 122.5c0-2.05 2.7-2.37 2.7-3.5 0-.5-.39-.79-.88-.79-.67 0-1.04.67-1.04.67l-.78-.51s.53-1.14 1.91-1.14c1.01 0 1.88.61 1.88 1.68 0 1.82-2.58 2.13-2.61 3.21h2.69v.89h-3.82c-.02-.18-.05-.34-.05-.5ZM309.07 147.95h1.25v-3.53h-.02s-.06.14-.25.32l-.46.43-.62-.64 1.44-1.37h.92v4.79h1.25v.89h-3.52v-.89ZM313.61 147.39s.54.58 1.31.58c.6 0 1.04-.36 1.04-.85 0-.6-.56-.88-1.23-.88h-.4l-.24-.53 1.06-1.23c.23-.26.41-.43.41-.43v-.02s-.17.02-.51.02h-1.72v-.89h3.52v.65l-1.41 1.61c.8.11 1.57.67 1.57 1.66s-.75 1.86-2.03 1.86-1.91-.76-1.91-.76l.54-.79ZM308.95 173.79h1.25v-3.53h-.02s-.06.14-.25.32l-.46.43-.62-.64 1.44-1.37h.92v4.79h1.25v.89h-3.52v-.89ZM312.76 172.58l2.48-3.58h1.24v3.36h.75v.86h-.75v1.46h-1.03v-1.46h-2.7v-.63Zm2.7-.22v-1.76c0-.28.04-.59.04-.59h-.02s-.13.3-.28.52l-1.33 1.82v.02h1.59ZM309.09 199.62h1.25v-3.53h-.02s-.06.14-.25.32l-.46.43-.62-.64 1.44-1.37h.92v4.79h1.25v.89h-3.52v-.89ZM313.7 199.06s.48.57 1.23.57c.56 0 1.09-.37 1.09-.97s-.5-.98-1.16-.98c-.51 0-.89.24-.89.24l-.58-.21.27-2.88h3.03v.89h-2.13l-.09.94-.04.26h.02s.27-.13.62-.13c1.27 0 2.03.84 2.03 1.86 0 1.12-.88 1.95-2.08 1.95s-1.84-.77-1.84-.77l.54-.78ZM308.95 225.46h1.25v-3.53h-.02s-.06.14-.25.32l-.46.43-.62-.64 1.44-1.37h.92v4.79h1.25v.89h-3.52v-.89ZM313.1 223.75c0-1.49.87-3.17 2.65-3.17.73 0 1.18.24 1.18.24l-.31.89s-.37-.18-.81-.18c-.91 0-1.39.74-1.53 1.52h.02c.2-.23.67-.4 1.08-.4 1.14 0 1.85.87 1.85 1.9s-.75 1.9-1.9 1.9c-1.2 0-2.22-.98-2.22-2.69Zm3.08.79c0-.58-.37-1.05-1.06-1.05-.52 0-.94.26-.94.62 0 .71.53 1.39 1.14 1.39.54 0 .86-.42.86-.96ZM309.19 251.29h1.25v-3.53h-.02s-.06.14-.25.32l-.46.43-.62-.64 1.44-1.37h.92v4.79h1.25v.89h-3.52v-.89ZM315.71 247.91c.18-.35.35-.52.35-.52v-.02s-.11.02-.4.02h-2.46v-.89h3.96v.72l-2.52 4.96h-1.09l2.16-4.27ZM308.92 277.13h1.25v-3.53h-.02s-.06.14-.25.32l-.46.43-.62-.64 1.44-1.37h.92v4.79h1.25v.89h-3.52v-.89ZM313.92 274.9a1.33 1.33 0 0 1-.59-1.11c0-.78.58-1.55 1.85-1.55 1.07 0 1.87.59 1.87 1.58 0 .7-.58 1.34-.64 1.4.42.26.74.62.74 1.21 0 .87-.74 1.69-2.03 1.69s-2.06-.77-2.06-1.74c0-.81.69-1.34.87-1.46Zm.74.42c-.19.15-.54.49-.54.96 0 .54.46.91.99.91s.97-.32.97-.82-.72-.72-1.42-1.05Zm.97-.49c.08-.09.39-.46.39-.96 0-.44-.34-.72-.86-.72s-.8.29-.8.66c0 .52.62.74 1.27 1.02ZM308.95 302.96h1.25v-3.53h-.02s-.06.14-.25.32l-.46.43-.62-.64 1.44-1.37h.92v4.79h1.25v.89h-3.52v-.89ZM313.31 303.7l.31-.89s.37.18.8.18c.91 0 1.4-.74 1.54-1.52h-.02c-.2.23-.67.4-1.09.4-1.14 0-1.84-.88-1.84-1.9s.75-1.9 1.9-1.9c1.2 0 2.22.98 2.22 2.69 0 1.49-.87 3.17-2.65 3.17-.73 0-1.18-.24-1.18-.24Zm2.74-3.29c0-.71-.54-1.39-1.14-1.39-.54 0-.87.42-.87.95 0 .58.37 1.06 1.06 1.06.52 0 .94-.27.94-.62ZM308.54 329.18c0-2.05 2.7-2.37 2.7-3.5 0-.5-.39-.79-.88-.79-.67 0-1.04.67-1.04.67l-.78-.51s.53-1.14 1.91-1.14c1.01 0 1.88.61 1.88 1.68 0 1.82-2.58 2.13-2.61 3.21h2.69v.89h-3.82c-.02-.18-.05-.34-.05-.5ZM313.31 326.84c0-1.63.51-2.93 2.09-2.93s2.09 1.3 2.09 2.93-.52 2.94-2.09 2.94-2.09-1.31-2.09-2.94Zm3.1 0c0-1.1-.23-1.98-1.01-1.98s-1.01.87-1.01 1.98.23 2 1.01 2 1.01-.88 1.01-2ZM403.79 96.67c0-2.05 2.7-2.37 2.7-3.5 0-.5-.39-.79-.88-.79-.67 0-1.04.67-1.04.67l-.78-.51s.53-1.14 1.91-1.14c1.01 0 1.88.61 1.88 1.68 0 1.82-2.58 2.13-2.61 3.21h2.69v.89h-3.82c-.02-.18-.05-.34-.05-.5ZM408.54 96.28h1.25v-3.53h-.02s-.06.14-.25.32l-.46.43-.62-.64 1.44-1.37h.92v4.79h1.25v.89h-3.52v-.89ZM403.52 122.5c0-2.05 2.7-2.37 2.7-3.5 0-.5-.39-.79-.88-.79-.67 0-1.04.67-1.04.67l-.78-.51s.53-1.14 1.91-1.14c1.01 0 1.88.61 1.88 1.68 0 1.82-2.58 2.13-2.61 3.21h2.69v.89h-3.82c-.02-.18-.05-.34-.05-.5ZM408.23 122.5c0-2.05 2.7-2.37 2.7-3.5 0-.5-.39-.79-.88-.79-.67 0-1.04.67-1.04.67l-.78-.51s.53-1.14 1.91-1.14c1.01 0 1.88.61 1.88 1.68 0 1.82-2.58 2.13-2.61 3.21h2.69v.89h-3.82c-.02-.18-.05-.34-.05-.5ZM403.54 148.34c0-2.05 2.7-2.37 2.7-3.5 0-.5-.39-.79-.88-.79-.67 0-1.04.67-1.04.67l-.78-.51s.53-1.14 1.91-1.14c1.01 0 1.88.61 1.88 1.68 0 1.82-2.58 2.13-2.61 3.21h2.69v.89h-3.82c-.02-.18-.05-.34-.05-.5ZM408.67 147.39s.54.58 1.31.58c.6 0 1.04-.36 1.04-.85 0-.6-.56-.88-1.23-.88h-.4l-.24-.53 1.06-1.23c.23-.26.41-.43.41-.43v-.02s-.17.02-.51.02h-1.72v-.89h3.52v.65l-1.41 1.61c.8.11 1.57.67 1.57 1.66s-.75 1.86-2.03 1.86-1.91-.76-1.91-.76l.54-.79ZM403.39 174.17c0-2.05 2.7-2.37 2.7-3.5 0-.5-.39-.79-.88-.79-.67 0-1.04.67-1.04.67l-.78-.51s.53-1.14 1.91-1.14c1.01 0 1.88.61 1.88 1.68 0 1.82-2.58 2.13-2.61 3.21h2.69v.89h-3.82c-.02-.18-.05-.34-.05-.5ZM407.85 172.58l2.48-3.58h1.24v3.36h.75v.86h-.75v1.46h-1.03v-1.46h-2.69v-.63Zm2.69-.22v-1.76c0-.28.04-.59.04-.59h-.02s-.13.3-.28.52l-1.33 1.82v.02h1.59ZM403.56 200.01c0-2.05 2.7-2.38 2.7-3.5 0-.5-.39-.79-.88-.79-.67 0-1.04.67-1.04.67l-.78-.51s.53-1.14 1.91-1.14c1.01 0 1.88.61 1.88 1.68 0 1.82-2.58 2.13-2.61 3.21h2.69v.89h-3.82c-.02-.18-.05-.34-.05-.5ZM408.75 199.06s.48.57 1.23.57c.56 0 1.09-.37 1.09-.97s-.5-.98-1.16-.98c-.51 0-.89.24-.89.24l-.58-.21.27-2.88h3.03v.89h-2.13l-.09.94-.04.26h.02s.27-.13.62-.13c1.27 0 2.03.84 2.03 1.86 0 1.12-.88 1.95-2.08 1.95s-1.84-.77-1.84-.77l.54-.78ZM403.42 225.84c0-2.05 2.7-2.37 2.7-3.5 0-.5-.39-.79-.88-.79-.67 0-1.04.67-1.04.67l-.78-.51s.53-1.14 1.91-1.14c1.01 0 1.88.61 1.88 1.68 0 1.82-2.58 2.13-2.61 3.21h2.69v.89h-3.82c-.02-.18-.05-.34-.05-.5ZM408.15 223.75c0-1.49.87-3.17 2.65-3.17.73 0 1.18.24 1.18.24l-.31.89s-.37-.18-.81-.18c-.91 0-1.39.74-1.53 1.52h.02c.2-.23.67-.4 1.08-.4 1.14 0 1.85.87 1.85 1.9s-.75 1.9-1.9 1.9c-1.2 0-2.22-.98-2.22-2.69Zm3.08.79c0-.58-.37-1.05-1.06-1.05-.52 0-.94.26-.94.62 0 .71.53 1.39 1.14 1.39.54 0 .86-.42.86-.96ZM403.66 251.68c0-2.05 2.7-2.37 2.7-3.5 0-.5-.39-.79-.88-.79-.67 0-1.04.67-1.04.67l-.78-.51s.53-1.14 1.91-1.14c1.01 0 1.88.61 1.88 1.68 0 1.82-2.58 2.13-2.61 3.21h2.69v.89h-3.82c-.02-.18-.05-.34-.05-.5ZM410.76 247.91c.18-.35.35-.52.35-.52v-.02s-.11.02-.4.02h-2.46v-.89h3.96v.72l-2.52 4.96h-1.09l2.16-4.27ZM403.39 277.51c0-2.05 2.7-2.37 2.7-3.5 0-.5-.39-.79-.88-.79-.67 0-1.04.67-1.04.67l-.78-.51s.53-1.14 1.91-1.14c1.01 0 1.88.61 1.88 1.68 0 1.82-2.58 2.13-2.61 3.21h2.69v.89h-3.82c-.02-.18-.05-.34-.05-.5ZM408.98 274.9a1.33 1.33 0 0 1-.59-1.11c0-.78.58-1.55 1.85-1.55 1.07 0 1.87.59 1.87 1.58 0 .7-.58 1.34-.64 1.4.42.26.74.62.74 1.21 0 .87-.74 1.69-2.03 1.69s-2.06-.77-2.06-1.74c0-.81.69-1.34.87-1.46Zm.74.42c-.19.15-.54.49-.54.96 0 .54.46.91.99.91s.97-.32.97-.82-.72-.72-1.42-1.05Zm.97-.49c.08-.09.39-.46.39-.96 0-.44-.34-.72-.86-.72s-.8.29-.8.66c0 .52.62.74 1.27 1.02ZM403.42 303.34c0-2.05 2.7-2.37 2.7-3.5 0-.5-.39-.79-.88-.79-.67 0-1.04.67-1.04.67l-.78-.51s.53-1.14 1.91-1.14c1.01 0 1.88.61 1.88 1.68 0 1.82-2.58 2.13-2.61 3.21h2.69v.89h-3.82c-.02-.18-.05-.34-.05-.5ZM408.36 303.7l.31-.89s.37.18.8.18c.91 0 1.4-.74 1.54-1.52h-.02c-.2.23-.67.4-1.09.4-1.14 0-1.84-.88-1.84-1.9s.75-1.9 1.9-1.9c1.2 0 2.22.98 2.22 2.69 0 1.49-.87 3.17-2.65 3.17-.73 0-1.18-.24-1.18-.24Zm2.74-3.29c0-.71-.54-1.39-1.14-1.39-.54 0-.87.42-.87.95 0 .58.37 1.06 1.06 1.06.52 0 .94-.27.94-.62ZM403.76 328.23s.54.58 1.31.58c.6 0 1.04-.36 1.04-.85 0-.6-.56-.88-1.23-.88h-.4l-.24-.53 1.06-1.23c.23-.26.41-.43.41-.43v-.02s-.17.02-.51.02h-1.72V324H407v.65l-1.41 1.61c.8.11 1.57.67 1.57 1.66s-.75 1.86-2.03 1.86-1.91-.76-1.91-.76l.54-.79ZM408.06 326.84c0-1.63.51-2.93 2.09-2.93s2.09 1.3 2.09 2.93-.52 2.94-2.09 2.94-2.09-1.31-2.09-2.94Zm3.1 0c0-1.1-.23-1.98-1.01-1.98s-1.01.87-1.01 1.98.23 2 1.01 2 1.01-.88 1.01-2ZM93.64 91.48h1.25v-3.53h-.02s-.06.14-.25.32l-.46.43-.62-.64 1.44-1.37h.92v4.79h1.25v.89h-3.52v-.89ZM97.82 89.53c0-1.63.51-2.93 2.09-2.93s2.09 1.3 2.09 2.93-.52 2.94-2.09 2.94-2.09-1.31-2.09-2.94Zm3.1 0c0-1.1-.23-1.97-1.01-1.97s-1.01.87-1.01 1.97.23 2 1.01 2 1.01-.88 1.01-2ZM102.93 89.53c0-1.63.51-2.93 2.09-2.93s2.09 1.3 2.09 2.93-.52 2.94-2.09 2.94-2.09-1.31-2.09-2.94Zm3.1 0c0-1.1-.23-1.97-1.01-1.97s-1.01.87-1.01 1.97.23 2 1.01 2 1.01-.88 1.01-2ZM77.43 100.52h-2.02l-.49 1.46h-1.08l2.03-5.68h1.1l2.03 5.68h-1.08l-.49-1.46Zm-1.01-3.24s-.13.56-.24.88l-.51 1.52h1.51l-.51-1.52a9.98 9.98 0 0 1-.23-.88h-.02ZM79.57 97.89h.99v.47c0 .15-.02.28-.02.28h.02c.18-.34.63-.85 1.47-.85.92 0 1.44.47 1.44 1.55v2.62h-1.02v-2.41c0-.5-.13-.83-.66-.83s-.96.34-1.11.83a1.6 1.6 0 0 0-.07.54v1.87h-1.03v-4.08ZM84.73 98.77h-.54v-.81h.56v-1.18h1.01v1.18h.94v.81h-.94v1.58c0 .67.54.77.82.77.11 0 .19-.02.19-.02v.89s-.12.02-.32.02c-.58 0-1.72-.17-1.72-1.54v-1.71ZM89.58 97.8c1.27 0 2.28.89 2.28 2.13s-1.01 2.14-2.27 2.14-2.28-.88-2.28-2.14 1.01-2.13 2.27-2.13Zm0 3.41c.67 0 1.23-.51 1.23-1.27s-.56-1.27-1.23-1.27-1.23.52-1.23 1.27.56 1.27 1.23 1.27ZM92.69 97.89h.99v.47c0 .15-.02.28-.02.28h.02c.18-.34.63-.85 1.47-.85.92 0 1.44.47 1.44 1.55v2.62h-1.02v-2.41c0-.5-.13-.83-.66-.83s-.96.34-1.11.83a1.6 1.6 0 0 0-.07.54v1.87H92.7v-4.08ZM102.37 96.2c1.4 0 2.13.78 2.13.78l-.5.77s-.66-.6-1.58-.6c-1.22 0-1.93.9-1.93 1.95s.74 2.03 1.94 2.03c1 0 1.67-.72 1.67-.72l.55.74s-.8.92-2.26.92c-1.76 0-2.98-1.29-2.98-2.96s1.27-2.91 2.96-2.91ZM107.42 97.8c1.27 0 2.28.89 2.28 2.13s-1.01 2.14-2.27 2.14-2.28-.88-2.28-2.14 1.01-2.13 2.27-2.13Zm0 3.41c.67 0 1.23-.51 1.23-1.27s-.56-1.27-1.23-1.27-1.23.52-1.23 1.27.56 1.27 1.23 1.27ZM110.53 97.89h.99v.7c0 .15-.02.29-.02.29h.02c.19-.58.68-1.05 1.31-1.05.1 0 .19.02.19.02v1s-.11-.02-.24-.02c-.44 0-.93.25-1.13.86-.06.2-.09.42-.09.66v1.62h-1.03v-4.08ZM113.72 97.89h.99v.47c0 .15-.02.28-.02.28h.02c.18-.34.63-.85 1.47-.85.92 0 1.44.47 1.44 1.55v2.62h-1.02v-2.41c0-.5-.13-.83-.66-.83s-.96.34-1.11.83a1.6 1.6 0 0 0-.07.54v1.87h-1.03v-4.08ZM120.8 99.41h.14v-.06c0-.54-.34-.72-.8-.72-.59 0-1.14.39-1.14.39l-.39-.73s.64-.5 1.62-.5c1.09 0 1.72.59 1.72 1.62v2.55H121v-.34c0-.16.02-.29.02-.29H121s-.32.72-1.26.72c-.74 0-1.4-.46-1.4-1.27 0-1.3 1.78-1.38 2.45-1.38Zm-.79 1.86c.54 0 .93-.58.93-1.07v-.1h-.18c-.53 0-1.38.07-1.38.64 0 .27.2.53.62.53ZM123.03 96.3h1.03v3.04h.51l1-1.44h1.14l-1.31 1.82v.02l1.47 2.24h-1.19l-1.1-1.78h-.54v1.78h-1.03V96.3ZM93.88 117.7c0-2.05 2.7-2.37 2.7-3.5 0-.5-.39-.79-.88-.79-.67 0-1.04.67-1.04.67l-.78-.51s.53-1.14 1.91-1.14c1.01 0 1.88.61 1.88 1.68 0 1.82-2.58 2.13-2.61 3.21h2.69v.89h-3.82c-.02-.18-.05-.34-.05-.5ZM98.59 117.7c0-2.05 2.7-2.37 2.7-3.5 0-.5-.39-.79-.88-.79-.67 0-1.04.67-1.04.67l-.78-.51s.53-1.14 1.91-1.14c1.01 0 1.88.61 1.88 1.68 0 1.82-2.58 2.13-2.61 3.21h2.69v.89h-3.82c-.02-.18-.05-.34-.05-.5ZM105.68 113.94c.18-.35.35-.52.35-.52v-.02s-.11.02-.4.02h-2.46v-.89h3.96v.72l-2.52 4.96h-1.09l2.16-4.27ZM72.47 122.13h1.86c.63 0 .91.05 1.16.16.58.26.94.8.94 1.55 0 .68-.37 1.31-.97 1.55v.02s.08.08.19.28l1.19 2.12h-1.17l-1.14-2.12h-1.01v2.12h-1.05v-5.68Zm1.99 2.66c.56 0 .91-.33.91-.9s-.24-.88-1.06-.88h-.8v1.78h.94ZM79.57 123.63c1.27 0 2.28.89 2.28 2.13s-1.01 2.14-2.27 2.14-2.28-.88-2.28-2.14 1.01-2.13 2.27-2.13Zm0 3.41c.67 0 1.23-.51 1.23-1.27s-.56-1.27-1.23-1.27-1.23.52-1.23 1.27.56 1.27 1.23 1.27ZM82.69 123.73h.99v.47c0 .15-.02.28-.02.28h.02c.2-.4.7-.85 1.35-.85s1.04.29 1.21.84h.02c.23-.44.76-.84 1.41-.84.86 0 1.36.48 1.36 1.55v2.62H88v-2.43c0-.46-.09-.82-.57-.82-.53 0-.88.42-1 .93-.04.16-.05.34-.05.53v1.79h-1.03v-2.43c0-.44-.07-.82-.56-.82-.54 0-.88.42-1.01.94-.04.15-.05.34-.05.52v1.79H82.7v-4.08ZM92.2 125.25h.14v-.06c0-.54-.34-.72-.8-.72-.59 0-1.14.39-1.14.39l-.39-.73s.64-.5 1.62-.5c1.09 0 1.72.59 1.72 1.62v2.55h-.95v-.34c0-.16.02-.29.02-.29h-.02s-.32.72-1.26.72c-.74 0-1.4-.46-1.4-1.27 0-1.3 1.78-1.38 2.45-1.38Zm-.79 1.86c.54 0 .93-.58.93-1.07v-.1h-.18c-.53 0-1.38.07-1.38.64 0 .27.2.53.62.53ZM94.44 123.73h.99v.47c0 .15-.02.28-.02.28h.02c.18-.34.63-.85 1.47-.85.92 0 1.44.47 1.44 1.55v2.62h-1.02v-2.41c0-.5-.13-.83-.66-.83s-.96.34-1.11.83a1.6 1.6 0 0 0-.07.54v1.87h-1.03v-4.08ZM101.55 122.13h1.05v2.31h.75l1.36-2.31h1.14l-1.63 2.7v.02l1.73 2.96h-1.18l-1.41-2.48h-.75v2.48h-1.05v-5.68ZM106.59 122.13h1.02v4.25c0 .45.15.56.42.56h.15v.89s-.15.02-.33.02c-.57 0-1.27-.14-1.27-1.31v-4.41ZM108.95 122.13h1.02v.9h-1.02v-.9Zm0 1.6h1.03v4.08h-1.03v-4.08ZM111.12 123.73h.99v.47c0 .15-.02.28-.02.28h.02c.2-.4.7-.85 1.35-.85s1.04.29 1.21.84h.02c.23-.44.76-.84 1.41-.84.86 0 1.36.48 1.36 1.55v2.62h-1.03v-2.43c0-.46-.09-.82-.57-.82-.53 0-.88.42-1 .93-.04.16-.05.34-.05.53v1.79h-1.03v-2.43c0-.44-.07-.82-.56-.82-.54 0-.88.42-1.01.94-.04.15-.05.34-.05.52v1.79h-1.03v-4.08ZM120.48 123.63c1.08 0 1.59.61 1.59.61l-.45.7s-.43-.44-1.08-.44c-.76 0-1.26.57-1.26 1.26s.5 1.28 1.29 1.28c.7 0 1.22-.52 1.22-.52l.4.72s-.59.66-1.7.66c-1.37 0-2.25-.95-2.25-2.14s.88-2.13 2.25-2.13ZM122.96 122.13h1.02v.9h-1.02v-.9Zm0 1.6h1.03v4.08h-1.03v-4.08ZM125.13 122.13h1.03v3.04h.51l1-1.44h1.15l-1.31 1.82v.02l1.47 2.24h-1.19l-1.1-1.78h-.54v1.78h-1.03v-5.68ZM93.6 143.54c0-2.05 2.7-2.37 2.7-3.5 0-.5-.39-.79-.88-.79-.67 0-1.04.67-1.04.67l-.78-.51s.53-1.14 1.91-1.14c1.01 0 1.88.61 1.88 1.68 0 1.82-2.58 2.13-2.61 3.21h2.69v.89h-3.82c-.02-.18-.05-.34-.05-.5ZM98.31 143.54c0-2.05 2.7-2.37 2.7-3.5 0-.5-.39-.79-.88-.79-.67 0-1.04.67-1.04.67l-.78-.51s.53-1.14 1.91-1.14c1.01 0 1.88.61 1.88 1.68 0 1.82-2.58 2.13-2.61 3.21h2.69v.89h-3.82c-.02-.18-.05-.34-.05-.5ZM103.9 140.93a1.33 1.33 0 0 1-.59-1.11c0-.78.58-1.55 1.85-1.55 1.07 0 1.87.59 1.87 1.58 0 .7-.58 1.34-.64 1.4.42.26.74.62.74 1.21 0 .87-.74 1.69-2.03 1.69s-2.06-.77-2.06-1.74c0-.81.69-1.34.87-1.46Zm.74.42c-.19.15-.54.49-.54.96 0 .54.46.91.99.91s.97-.32.97-.82-.72-.72-1.42-1.05Zm.97-.49c.08-.09.39-.46.39-.96 0-.44-.34-.72-.86-.72s-.8.29-.8.66c0 .52.62.74 1.27 1.02ZM63.82 147.96h1.05v4.79h2.49v.89h-3.54v-5.68ZM67.98 149.56h1.03v2.41c0 .5.13.83.64.83.75 0 1.16-.65 1.16-1.38v-1.87h1.03v4.08h-.99v-.46c0-.16.02-.29.02-.29h-.02c-.2.42-.73.85-1.44.85-.88 0-1.44-.44-1.44-1.55v-2.62ZM74.93 149.47c1.08 0 1.59.61 1.59.61l-.45.7s-.43-.44-1.08-.44c-.76 0-1.26.57-1.26 1.26s.5 1.28 1.29 1.28c.7 0 1.22-.52 1.22-.52l.4.72s-.59.66-1.7.66c-1.37 0-2.25-.95-2.25-2.14s.88-2.13 2.25-2.13ZM77.41 147.96h1.02v.9h-1.02v-.9Zm0 1.6h1.03v4.08h-1.03v-4.08ZM81.68 151.08h.14v-.06c0-.54-.34-.72-.8-.72-.59 0-1.14.39-1.14.39l-.39-.73s.64-.5 1.62-.5c1.09 0 1.72.59 1.72 1.62v2.55h-.95v-.34c0-.16.02-.29.02-.29h-.02s-.32.72-1.26.72c-.74 0-1.4-.46-1.4-1.27 0-1.3 1.78-1.38 2.45-1.38Zm-.79 1.86c.54 0 .93-.58.93-1.07v-.1h-.18c-.53 0-1.38.07-1.38.64 0 .27.2.53.62.53ZM86.05 147.96h1.05v2.31h.75l1.36-2.31h1.14l-1.63 2.7v.02l1.73 2.96h-1.18l-1.41-2.48h-.75v2.48h-1.05v-5.68ZM91.14 149.56h.99v.7c0 .15-.02.29-.02.29h.02c.19-.58.68-1.05 1.31-1.05.1 0 .19.02.19.02v1s-.11-.02-.24-.02c-.44 0-.93.25-1.13.86-.06.2-.09.42-.09.66v1.62h-1.03v-4.08ZM96.44 151.08h.14v-.06c0-.54-.34-.72-.8-.72-.59 0-1.14.39-1.14.39l-.39-.73s.64-.5 1.62-.5c1.09 0 1.72.59 1.72 1.62v2.55h-.95v-.34c0-.16.02-.29.02-.29h-.02s-.32.72-1.26.72c-.74 0-1.4-.46-1.4-1.27 0-1.3 1.78-1.38 2.45-1.38Zm-.79 1.86c.54 0 .93-.58.93-1.07v-.1h-.18c-.53 0-1.38.07-1.38.64 0 .27.2.53.62.53ZM98.67 149.56h.99v.47c0 .15-.02.28-.02.28h.02c.2-.4.7-.85 1.35-.85s1.04.29 1.21.84h.02c.23-.44.76-.84 1.41-.84.86 0 1.36.48 1.36 1.55v2.62h-1.03v-2.43c0-.46-.09-.82-.57-.82-.53 0-.88.42-1 .93-.04.16-.05.34-.05.53v1.79h-1.03v-2.43c0-.44-.07-.82-.56-.82-.54 0-.88.42-1.01.94-.04.15-.05.34-.05.52v1.79h-1.03v-4.08ZM108.19 151.08h.14v-.06c0-.54-.34-.72-.8-.72-.59 0-1.14.39-1.14.39l-.39-.73s.64-.5 1.62-.5c1.09 0 1.72.59 1.72 1.62v2.55h-.95v-.34c0-.16.02-.29.02-.29h-.02s-.32.72-1.26.72c-.74 0-1.4-.46-1.4-1.27 0-1.3 1.78-1.38 2.45-1.38Zm-.79 1.86c.54 0 .93-.58.93-1.07v-.1h-.18c-.53 0-1.38.07-1.38.64 0 .27.2.53.62.53ZM110.42 149.56h.99v.7c0 .15-.02.29-.02.29h.02c.19-.58.68-1.05 1.31-1.05.1 0 .19.02.19.02v1s-.11-.02-.24-.02c-.44 0-.93.25-1.13.86-.06.2-.09.42-.09.66v1.62h-1.03v-4.08ZM115.56 149.47c1.08 0 1.59.61 1.59.61l-.45.7s-.43-.44-1.08-.44c-.76 0-1.26.57-1.26 1.26s.5 1.28 1.29 1.28c.7 0 1.22-.52 1.22-.52l.4.72s-.59.66-1.7.66c-1.37 0-2.25-.95-2.25-2.14s.88-2.13 2.25-2.13ZM118.04 147.96h1.02v.9h-1.02v-.9Zm0 1.6h1.03v4.08h-1.03v-4.08ZM120.21 147.96h1.03V151h.51l1-1.44h1.14l-1.31 1.82v.02l1.47 2.24h-1.19l-1.1-1.78h-.54v1.78h-1.03v-5.68ZM126.59 149.47c1.27 0 2.28.89 2.28 2.13s-1.01 2.14-2.27 2.14-2.28-.88-2.28-2.14 1.01-2.13 2.27-2.13Zm0 3.41c.67 0 1.23-.51 1.23-1.27s-.56-1.27-1.23-1.27-1.23.52-1.23 1.27.56 1.27 1.23 1.27ZM129.14 149.56h1.09l.86 2.53c.08.24.14.62.15.62h.02s.07-.38.15-.62l.86-2.53h1.09l-1.49 4.08h-1.22l-1.5-4.08ZM136.02 151.08h.14v-.06c0-.54-.34-.72-.8-.72-.59 0-1.14.39-1.14.39l-.39-.73s.64-.5 1.62-.5c1.09 0 1.72.59 1.72 1.62v2.55h-.95v-.34c0-.16.02-.29.02-.29h-.02s-.32.72-1.26.72c-.74 0-1.4-.46-1.4-1.27 0-1.3 1.78-1.38 2.45-1.38Zm-.79 1.86c.54 0 .93-.58.93-1.07v-.1h-.18c-.53 0-1.38.07-1.38.64 0 .27.2.53.62.53ZM93.63 169.37c0-2.05 2.7-2.37 2.7-3.5 0-.5-.39-.79-.88-.79-.67 0-1.04.67-1.04.67l-.78-.51s.53-1.14 1.91-1.14c1.01 0 1.88.61 1.88 1.68 0 1.82-2.58 2.13-2.61 3.21h2.69v.89h-3.82c-.02-.18-.05-.34-.05-.5ZM98.34 169.37c0-2.05 2.7-2.37 2.7-3.5 0-.5-.39-.79-.88-.79-.67 0-1.04.67-1.04.67l-.78-.51s.53-1.14 1.91-1.14c1.01 0 1.88.61 1.88 1.68 0 1.82-2.58 2.13-2.61 3.21h2.69v.89h-3.82c-.02-.18-.05-.34-.05-.5ZM103.29 169.73l.31-.89s.37.18.8.18c.91 0 1.4-.74 1.54-1.52h-.02c-.2.23-.67.4-1.09.4-1.14 0-1.84-.88-1.84-1.9s.75-1.9 1.9-1.9c1.2 0 2.22.98 2.22 2.69 0 1.49-.87 3.17-2.65 3.17-.73 0-1.18-.24-1.18-.24Zm2.74-3.29c0-.71-.54-1.39-1.14-1.39-.54 0-.87.42-.87.95 0 .58.37 1.06 1.06 1.06.52 0 .94-.27.94-.62ZM76.47 173.8h1.12l1.13 2.81c.13.34.29.83.29.83h.02s.15-.5.28-.83l1.13-2.81h1.12l.46 5.68h-1.04l-.24-3.17c-.02-.38 0-.88 0-.88h-.02s-.17.55-.31.88l-.93 2.2h-.92l-.93-2.2c-.14-.33-.32-.89-.32-.89h-.02s.02.51 0 .89l-.24 3.17H76l.47-5.68ZM83.14 173.8h1.02v.9h-1.02v-.9Zm0 1.6h1.03v4.08h-1.03v-4.08ZM87.26 175.3c1.08 0 1.59.61 1.59.61l-.45.7s-.43-.44-1.08-.44c-.76 0-1.26.57-1.26 1.26s.5 1.28 1.29 1.28c.7 0 1.22-.52 1.22-.52l.4.72s-.59.66-1.7.66c-1.37 0-2.25-.95-2.25-2.14s.88-2.13 2.25-2.13ZM89.74 173.8h1.03v1.97c0 .2-.02.34-.02.34h.02c.2-.39.71-.81 1.43-.81.92 0 1.44.47 1.44 1.55v2.62h-1.02v-2.41c0-.5-.13-.83-.66-.83s-.97.35-1.12.85a1.8 1.8 0 0 0-.06.53v1.87h-1.03v-5.68ZM96.82 176.92h.14v-.06c0-.54-.34-.72-.8-.72-.59 0-1.14.39-1.14.39l-.39-.73s.64-.5 1.62-.5c1.09 0 1.72.59 1.72 1.62v2.55h-.95v-.34c0-.16.02-.29.02-.29h-.02s-.32.72-1.26.72c-.74 0-1.4-.46-1.4-1.27 0-1.3 1.78-1.38 2.45-1.38Zm-.79 1.86c.54 0 .93-.58.93-1.07v-.1h-.18c-.53 0-1.38.07-1.38.64 0 .27.2.53.62.53ZM99 173.8h1.02v4.25c0 .45.15.56.42.56h.15v.89s-.15.02-.33.02c-.57 0-1.27-.14-1.27-1.31v-4.41ZM103.5 173.8h1.05v4.79h2.49v.89h-3.54v-5.68ZM107.65 175.4h1.03v2.41c0 .5.13.83.64.83.75 0 1.16-.65 1.16-1.38v-1.87h1.03v4.08h-.99v-.46c0-.16.02-.29.02-.29h-.02c-.2.42-.73.85-1.44.85-.88 0-1.44-.44-1.44-1.55v-2.62ZM112.66 173.8h1.03v3.04h.51l1-1.44h1.15l-1.31 1.82v.02l1.47 2.24h-1.19l-1.1-1.78h-.54v1.78h-1.03v-5.68ZM119.24 176.92h.14v-.06c0-.54-.34-.72-.8-.72-.59 0-1.14.39-1.14.39l-.39-.73s.64-.5 1.62-.5c1.09 0 1.72.59 1.72 1.62v2.55h-.95v-.34c0-.16.02-.29.02-.29h-.02s-.32.72-1.26.72c-.74 0-1.4-.46-1.4-1.27 0-1.3 1.78-1.38 2.45-1.38Zm-.79 1.86c.54 0 .93-.58.93-1.07v-.1h-.18c-.53 0-1.38.07-1.38.64 0 .27.2.53.62.53ZM123.42 175.3c1.08 0 1.59.61 1.59.61l-.45.7s-.43-.44-1.08-.44c-.76 0-1.26.57-1.26 1.26s.5 1.28 1.29 1.28c.7 0 1.22-.52 1.22-.52l.4.72s-.59.66-1.7.66c-1.37 0-2.25-.95-2.25-2.14s.88-2.13 2.25-2.13ZM93.56 195.21c0-2.05 2.7-2.37 2.7-3.5 0-.5-.39-.79-.88-.79-.67 0-1.04.67-1.04.67l-.78-.51s.53-1.13 1.91-1.13c1.01 0 1.88.61 1.88 1.68 0 1.82-2.58 2.13-2.61 3.21h2.69v.89h-3.82c-.02-.18-.05-.34-.05-.5ZM98.68 194.25s.54.58 1.31.58c.6 0 1.04-.36 1.04-.85 0-.6-.56-.88-1.23-.88h-.4l-.24-.53 1.06-1.23c.23-.26.41-.43.41-.43v-.02s-.17.02-.51.02H98.4v-.89h3.52v.65l-1.41 1.61c.8.11 1.57.67 1.57 1.66s-.75 1.86-2.03 1.86-1.91-.76-1.91-.76l.54-.79ZM102.98 192.86c0-1.63.51-2.93 2.09-2.93s2.09 1.29 2.09 2.93-.52 2.94-2.09 2.94-2.09-1.31-2.09-2.94Zm3.1 0c0-1.1-.23-1.97-1.01-1.97s-1.01.87-1.01 1.97.23 2 1.01 2 1.01-.88 1.01-2ZM77.85 199.63h1.12l1.13 2.81c.13.34.29.83.29.83h.02s.15-.5.28-.83l1.13-2.81h1.12l.46 5.68h-1.04l-.24-3.17c-.02-.38 0-.88 0-.88h-.02s-.17.55-.31.88l-.93 2.2h-.92l-.93-2.2c-.14-.33-.32-.89-.32-.89h-.02s.02.51 0 .89l-.24 3.17h-1.05l.47-5.68ZM86.63 202.75h.14v-.06c0-.54-.34-.72-.8-.72-.59 0-1.14.39-1.14.39l-.39-.73s.64-.5 1.62-.5c1.09 0 1.72.59 1.72 1.62v2.55h-.95v-.34c0-.16.02-.29.02-.29h-.02s-.32.72-1.26.72c-.74 0-1.4-.46-1.4-1.27 0-1.29 1.78-1.38 2.45-1.38Zm-.79 1.86c.54 0 .93-.58.93-1.07v-.1h-.18c-.53 0-1.38.07-1.38.64 0 .27.2.53.62.53ZM89.02 202.1h-.54v-.81h.56v-1.18h1.01v1.18h.94v.81h-.94v1.58c0 .67.54.77.82.77.11 0 .19-.02.19-.02v.89s-.12.02-.32.02c-.58 0-1.72-.17-1.72-1.54v-1.71ZM91.85 201.23h1.03v2.42c0 .5.13.83.64.83.75 0 1.16-.65 1.16-1.38v-1.87h1.03v4.08h-.99v-.46c0-.16.02-.29.02-.29h-.02c-.2.42-.73.85-1.44.85-.88 0-1.44-.44-1.44-1.55v-2.62ZM96.97 204.09s.45.45 1.13.45c.29 0 .54-.13.54-.37 0-.61-2.01-.53-2.01-1.84 0-.76.69-1.2 1.58-1.2s1.39.46 1.39.46l-.38.75s-.38-.35-1.01-.35c-.27 0-.53.11-.53.37 0 .58 2.01.5 2.01 1.81 0 .68-.6 1.22-1.58 1.22-1.03 0-1.61-.6-1.61-.6l.47-.71ZM102.66 199.63h3.31v.89h-2.26v1.61h1.91v.89h-1.91v2.29h-1.05v-5.68ZM108.6 201.14c1.19 0 1.83.86 1.83 1.93l-.02.39h-2.86c.07.71.63 1.08 1.24 1.08.67 0 1.19-.45 1.19-.45l.4.73s-.63.58-1.66.58c-1.37 0-2.22-.98-2.22-2.13 0-1.26.87-2.13 2.1-2.13Zm.8 1.63c-.02-.55-.37-.85-.82-.85-.53 0-.89.32-.99.85h1.81ZM112.88 201.14c.91 0 1.19.52 1.19.52h.02v-2.02h1.03v5.68h-.97v-.34c0-.15.02-.26.02-.26h-.02s-.35.7-1.3.7c-1.12 0-1.83-.87-1.83-2.13s.78-2.13 1.88-2.13Zm.19 3.41c.54 0 1.04-.38 1.04-1.29 0-.63-.34-1.26-1.03-1.26-.57 0-1.04.46-1.04 1.26s.42 1.28 1.03 1.28ZM118.21 201.14c1.27 0 2.28.89 2.28 2.13s-1.02 2.13-2.27 2.13-2.28-.88-2.28-2.13 1.01-2.13 2.27-2.13Zm0 3.41c.67 0 1.23-.51 1.23-1.27s-.56-1.27-1.23-1.27-1.23.52-1.23 1.27.56 1.27 1.23 1.27ZM121.33 201.23h.99v.7c0 .15-.02.29-.02.29h.02c.19-.58.68-1.05 1.31-1.05.1 0 .19.02.19.02v1s-.11-.02-.24-.02c-.44 0-.93.25-1.13.86-.06.2-.09.42-.09.66v1.62h-1.03v-4.08ZM93.8 221.04c0-2.05 2.7-2.37 2.7-3.5 0-.5-.39-.79-.88-.79-.67 0-1.04.67-1.04.67l-.78-.51s.53-1.14 1.91-1.14c1.01 0 1.88.61 1.88 1.68 0 1.82-2.58 2.13-2.61 3.21h2.69v.89h-3.82c-.02-.18-.05-.34-.05-.5ZM98.92 220.09s.54.58 1.31.58c.6 0 1.04-.36 1.04-.85 0-.6-.56-.88-1.23-.88h-.4l-.24-.53 1.06-1.23c.23-.26.41-.43.41-.43v-.02s-.17.02-.51.02h-1.72v-.89h3.52v.65l-1.41 1.61c.8.11 1.57.67 1.57 1.65s-.75 1.86-2.03 1.86-1.91-.76-1.91-.76l.54-.79ZM103.65 220.1s.48.57 1.23.57c.56 0 1.09-.37 1.09-.97s-.5-.98-1.16-.98c-.51 0-.89.24-.89.24l-.58-.21.27-2.88h3.03v.89h-2.13l-.09.94-.04.26h.02s.27-.13.62-.13c1.27 0 2.03.84 2.03 1.86 0 1.12-.88 1.95-2.08 1.95s-1.84-.77-1.84-.77l.54-.78ZM78.54 229.14h1.04v.26c0 .67.37.9.76.9s.74-.23.74-.85v-3.09h-1.49v-.89h2.53v4c0 1.24-.91 1.78-1.8 1.78s-1.79-.55-1.79-1.78v-.33ZM85.45 228.59h.14v-.06c0-.54-.34-.72-.8-.72-.59 0-1.14.39-1.14.39l-.39-.73s.64-.5 1.62-.5c1.09 0 1.72.59 1.72 1.62v2.55h-.95v-.34c0-.16.02-.29.02-.29h-.02s-.32.72-1.26.72c-.74 0-1.4-.46-1.4-1.27 0-1.3 1.78-1.38 2.45-1.38Zm-.79 1.86c.54 0 .93-.58.93-1.07v-.1h-.18c-.53 0-1.38.07-1.38.64 0 .27.2.53.62.53ZM87.69 227.07h.99v.47c0 .15-.02.28-.02.28h.02c.18-.34.63-.85 1.47-.85.92 0 1.44.47 1.44 1.55v2.62h-1.02v-2.41c0-.5-.13-.83-.66-.83s-.96.34-1.11.83a1.6 1.6 0 0 0-.07.54v1.87H87.7v-4.08ZM95.09 225.47h1.12l1.13 2.81c.13.34.29.83.29.83h.02s.15-.5.28-.83l1.13-2.81h1.12l.46 5.68H99.6l-.24-3.17c-.02-.38 0-.88 0-.88h-.02s-.17.55-.31.88l-.93 2.2h-.92l-.93-2.2c-.14-.33-.32-.89-.32-.89h-.02s.02.51 0 .89l-.24 3.17h-1.05l.47-5.68ZM103.87 228.59h.14v-.06c0-.54-.34-.72-.8-.72-.59 0-1.14.39-1.14.39l-.39-.73s.64-.5 1.62-.5c1.09 0 1.72.59 1.72 1.62v2.55h-.95v-.34c0-.16.02-.29.02-.29h-.02s-.32.72-1.26.72c-.74 0-1.4-.46-1.4-1.27 0-1.3 1.78-1.38 2.45-1.38Zm-.79 1.86c.54 0 .93-.58.93-1.07v-.1h-.18c-.53 0-1.38.07-1.38.64 0 .27.2.53.62.53ZM108.06 226.97c1.08 0 1.59.61 1.59.61l-.45.7s-.43-.44-1.08-.44c-.76 0-1.26.57-1.26 1.26s.5 1.28 1.29 1.28c.7 0 1.22-.52 1.22-.52l.4.72s-.59.66-1.7.66c-1.37 0-2.25-.95-2.25-2.14s.88-2.13 2.25-2.13ZM110.48 227.07h1.03v2.41c0 .5.13.83.64.83.75 0 1.16-.65 1.16-1.38v-1.87h1.03v4.08h-.99v-.46c0-.16.02-.29.02-.29h-.02c-.2.42-.73.85-1.44.85-.88 0-1.44-.44-1.44-1.55v-2.62ZM115.48 227.07h.99v.7c0 .15-.02.29-.02.29h.02c.19-.58.68-1.05 1.31-1.05.1 0 .19.02.19.02v1s-.11-.02-.24-.02c-.44 0-.93.25-1.13.86-.06.2-.09.42-.09.66v1.62h-1.03v-4.08ZM120.77 228.59h.14v-.06c0-.54-.34-.72-.8-.72-.59 0-1.14.39-1.14.39l-.39-.73s.64-.5 1.62-.5c1.09 0 1.72.59 1.72 1.62v2.55h-.95v-.34c0-.16.02-.29.02-.29h-.02s-.32.72-1.26.72c-.74 0-1.4-.46-1.4-1.27 0-1.3 1.78-1.38 2.45-1.38Zm-.79 1.86c.54 0 .93-.58.93-1.07v-.1h-.18c-.53 0-1.38.07-1.38.64 0 .27.2.53.62.53ZM93.43 246.88c0-2.05 2.7-2.37 2.7-3.5 0-.5-.39-.79-.88-.79-.67 0-1.04.67-1.04.67l-.78-.51s.53-1.14 1.91-1.14c1.01 0 1.88.61 1.88 1.68 0 1.82-2.58 2.13-2.61 3.21h2.69v.89h-3.82c-.02-.18-.05-.34-.05-.5ZM97.89 245.28l2.48-3.58h1.24v3.36h.75v.86h-.75v1.46h-1.03v-1.46h-2.69v-.63Zm2.69-.22v-1.76c0-.28.04-.59.04-.59h-.02s-.13.3-.28.52l-1.33 1.81v.02h1.59ZM102.94 245.28l2.48-3.58h1.24v3.36h.75v.86h-.75v1.46h-1.03v-1.46h-2.69v-.63Zm2.69-.22v-1.76c0-.28.04-.59.04-.59h-.02s-.13.3-.28.52l-1.33 1.81v.02h1.59ZM78.16 251.3h1.12l1.13 2.81c.13.34.29.83.29.83h.02s.15-.5.28-.83l1.13-2.81h1.12l.46 5.68h-1.04l-.24-3.17c-.02-.38 0-.88 0-.88h-.02s-.17.55-.31.88l-.93 2.2h-.92l-.93-2.2c-.14-.33-.32-.89-.32-.89h-.02s.02.51 0 .89l-.24 3.17h-1.05l.47-5.68ZM86.94 254.42h.14v-.06c0-.54-.34-.72-.8-.72-.59 0-1.14.39-1.14.39l-.39-.73s.64-.5 1.62-.5c1.09 0 1.72.59 1.72 1.62v2.55h-.95v-.34c0-.16.02-.29.02-.29h-.02s-.32.72-1.26.72c-.74 0-1.4-.46-1.4-1.27 0-1.3 1.78-1.38 2.45-1.38Zm-.79 1.86c.54 0 .93-.58.93-1.07v-.1h-.18c-.53 0-1.38.07-1.38.64 0 .27.2.53.62.53ZM89.17 252.9h.99v.7c0 .15-.02.29-.02.29h.02c.19-.58.68-1.05 1.31-1.05.1 0 .19.02.19.02v1s-.11-.02-.24-.02c-.44 0-.93.25-1.13.86-.06.2-.09.42-.09.66v1.62h-1.03v-4.08ZM94.17 252.81c1.19 0 1.83.86 1.83 1.94l-.02.39h-2.86c.06.71.62 1.08 1.24 1.08.67 0 1.19-.45 1.19-.45l.4.73s-.63.58-1.66.58c-1.37 0-2.22-.98-2.22-2.14 0-1.26.87-2.13 2.1-2.13Zm.8 1.63c-.02-.55-.37-.85-.82-.85-.53 0-.89.32-.99.85h1.81ZM96.86 251.3h1.03v3.04h.51l1-1.44h1.14l-1.31 1.82v.02l1.47 2.24h-1.19l-1.1-1.78h-.54v1.78h-1.03v-5.68ZM106.04 251.21c1.4 0 2.13.78 2.13.78l-.5.77s-.66-.6-1.57-.6c-1.22 0-1.93.9-1.93 1.95s.74 2.03 1.94 2.03c1 0 1.67-.72 1.67-.72l.55.74s-.8.92-2.26.92c-1.76 0-2.98-1.29-2.98-2.96s1.27-2.91 2.96-2.91ZM109.13 251.3h1.02v.9h-1.02v-.9Zm0 1.6h1.03v4.08h-1.03v-4.08ZM112.87 257.79c.63 0 1.17-.26 1.17-.99v-.24l.02-.22h-.02c-.24.36-.6.55-1.15.55-1.19 0-1.86-.94-1.86-2.06s.64-2.03 1.83-2.03c.9 0 1.23.52 1.23.52h.02v-.42h.97v3.83c0 1.4-1.1 1.93-2.18 1.93-.52 0-1.07-.14-1.47-.35l.31-.78s.52.26 1.14.26Zm1.19-2.95c0-.93-.46-1.18-1.02-1.18-.62 0-.97.45-.97 1.14s.37 1.24 1.04 1.24c.5 0 .96-.28.96-1.2ZM118.31 254.42h.14v-.06c0-.54-.34-.72-.8-.72-.59 0-1.14.39-1.14.39l-.39-.73s.64-.5 1.62-.5c1.09 0 1.72.59 1.72 1.62v2.55h-.95v-.34c0-.16.02-.29.02-.29h-.02s-.32.72-1.26.72c-.74 0-1.4-.46-1.4-1.27 0-1.3 1.78-1.38 2.45-1.38Zm-.79 1.86c.54 0 .93-.58.93-1.07v-.1h-.18c-.53 0-1.38.07-1.38.64 0 .27.2.53.62.53ZM120.66 255.76s.45.45 1.13.45c.29 0 .54-.13.54-.37 0-.61-2.01-.53-2.01-1.84 0-.76.69-1.2 1.58-1.2s1.39.46 1.39.46l-.38.75s-.38-.35-1.01-.35c-.27 0-.53.11-.53.37 0 .58 2.01.5 2.01 1.81 0 .68-.6 1.22-1.58 1.22-1.03 0-1.61-.6-1.61-.6l.47-.71ZM94.12 271.76s.54.58 1.31.58c.6 0 1.04-.36 1.04-.85 0-.6-.56-.88-1.23-.88h-.4l-.24-.53 1.06-1.23c.23-.26.41-.43.41-.43v-.02s-.17.02-.51.02h-1.72v-.89h3.52v.65l-1.41 1.61c.8.11 1.57.67 1.57 1.65s-.75 1.86-2.03 1.86-1.91-.76-1.91-.76l.54-.79ZM98.42 270.37c0-1.63.51-2.93 2.09-2.93s2.09 1.3 2.09 2.93-.52 2.94-2.09 2.94-2.09-1.31-2.09-2.94Zm3.1 0c0-1.1-.23-1.97-1.01-1.97s-1.01.87-1.01 1.97.23 2 1.01 2 1.01-.88 1.01-2ZM105.86 268.94c.18-.35.35-.52.35-.52v-.02s-.11.02-.4.02h-2.46v-.89h3.96v.72l-2.52 4.96h-1.09l2.16-4.27ZM70.69 277.14h1.13l1.27 3.7c.11.33.21.83.22.83h.02s.11-.5.22-.83l1.27-3.7h1.12l-2.1 5.68H72.8l-2.1-5.68ZM76.38 278.74h.99v.7c0 .15-.02.29-.02.29h.02c.19-.58.68-1.05 1.31-1.05.1 0 .19.02.19.02v1s-.11-.02-.24-.02c-.44 0-.93.25-1.13.86-.06.2-.09.42-.09.66v1.62h-1.03v-4.08ZM81.67 280.26h.14v-.06c0-.54-.34-.72-.8-.72-.59 0-1.14.39-1.14.39l-.39-.73s.64-.5 1.62-.5c1.09 0 1.72.59 1.72 1.62v2.55h-.95v-.34c0-.16.02-.29.02-.29h-.02s-.32.72-1.26.72c-.74 0-1.4-.46-1.4-1.27 0-1.3 1.78-1.38 2.45-1.38Zm-.79 1.86c.54 0 .93-.58.93-1.07v-.1h-.18c-.53 0-1.38.07-1.38.64 0 .27.2.53.62.53ZM84.06 279.61h-.54v-.81h.56v-1.18h1.01v1.18h.94v.81h-.94v1.58c0 .67.54.77.82.77.11 0 .19-.02.19-.02v.89s-.12.02-.32.02c-.58 0-1.72-.17-1.72-1.54v-1.71ZM86.94 277.14h1.02v.9h-1.02v-.9Zm0 1.6h1.03v4.08h-1.03v-4.08ZM89.23 281.6s.45.45 1.13.45c.29 0 .54-.13.54-.37 0-.61-2.01-.53-2.01-1.84 0-.76.69-1.2 1.58-1.2s1.39.46 1.39.46l-.38.75s-.38-.35-1.01-.35c-.27 0-.53.11-.53.37 0 .58 2.01.5 2.01 1.81 0 .68-.6 1.22-1.58 1.22-1.03 0-1.61-.6-1.61-.6l.47-.71ZM92.73 277.14h1.02v4.25c0 .45.15.56.42.56h.15v.89s-.15.02-.32.02c-.57 0-1.27-.14-1.27-1.31v-4.41ZM97.19 280.26h.14v-.06c0-.54-.34-.72-.8-.72-.59 0-1.14.39-1.14.39l-.39-.73s.64-.5 1.62-.5c1.09 0 1.72.59 1.72 1.62v2.55h-.95v-.34c0-.16.02-.29.02-.29h-.02s-.32.72-1.26.72c-.74 0-1.4-.46-1.4-1.27 0-1.3 1.78-1.38 2.45-1.38Zm-.79 1.86c.54 0 .93-.58.93-1.07v-.1h-.18c-.53 0-1.38.07-1.38.64 0 .27.2.53.62.53ZM98.86 278.74h1.09l.86 2.53c.08.24.14.62.15.62h.02s.06-.38.15-.62l.86-2.53h1.09l-1.49 4.08h-1.22l-1.5-4.08ZM105.78 277.14h3.31v.89h-2.26v1.61h1.91v.89h-1.91v2.29h-1.05v-5.68ZM111.97 280.26h.14v-.06c0-.54-.34-.72-.8-.72-.59 0-1.14.39-1.14.39l-.39-.73s.64-.5 1.62-.5c1.09 0 1.72.59 1.72 1.62v2.55h-.95v-.34c0-.16.02-.29.02-.29h-.02s-.32.72-1.26.72c-.74 0-1.4-.46-1.4-1.27 0-1.3 1.78-1.38 2.45-1.38Zm-.79 1.86c.54 0 .93-.58.93-1.07v-.1h-.18c-.53 0-1.38.07-1.38.64 0 .27.2.53.62.53ZM114.2 277.14h1.03v1.75c0 .2-.02.34-.02.34h.02s.37-.59 1.24-.59c1.12 0 1.83.87 1.83 2.13s-.8 2.14-1.9 2.14c-.86 0-1.23-.61-1.23-.61h-.02s.02.12.02.28v.23h-.97v-5.68Zm2.03 4.92c.57 0 1.04-.46 1.04-1.26s-.42-1.28-1.03-1.28c-.54 0-1.04.38-1.04 1.29 0 .63.34 1.26 1.03 1.26ZM119.16 277.14h1.02v.9h-1.02v-.9Zm0 1.6h1.03v4.08h-1.03v-4.08ZM123.43 280.26h.14v-.06c0-.54-.34-.72-.8-.72-.59 0-1.14.39-1.14.39l-.39-.73s.64-.5 1.62-.5c1.09 0 1.72.59 1.72 1.62v2.55h-.95v-.34c0-.16.02-.29.02-.29h-.02s-.32.72-1.26.72c-.74 0-1.4-.46-1.4-1.27 0-1.3 1.78-1.38 2.45-1.38Zm-.79 1.86c.54 0 .93-.58.93-1.07v-.1h-.18c-.53 0-1.38.07-1.38.64 0 .27.2.53.62.53ZM125.67 278.74h.99v.47c0 .15-.02.28-.02.28h.02c.18-.34.63-.85 1.47-.85.92 0 1.44.47 1.44 1.55v2.62h-1.02v-2.41c0-.5-.13-.83-.66-.83s-.96.34-1.11.83a1.6 1.6 0 0 0-.07.54v1.87h-1.03v-4.08ZM93.87 297.59s.54.58 1.31.58c.6 0 1.04-.36 1.04-.85 0-.6-.56-.88-1.23-.88h-.4l-.24-.53 1.06-1.23c.23-.26.41-.43.41-.43v-.02s-.17.02-.51.02h-1.72v-.89h3.52v.65l-1.41 1.61c.8.11 1.57.67 1.57 1.65s-.75 1.86-2.03 1.86-1.91-.76-1.91-.76l.54-.79ZM98.18 296.2c0-1.63.51-2.93 2.09-2.93s2.09 1.3 2.09 2.93-.52 2.94-2.09 2.94-2.09-1.31-2.09-2.94Zm3.1 0c0-1.1-.23-1.97-1.01-1.97s-1.01.87-1.01 1.97.23 2 1.01 2 1.01-.88 1.01-2ZM103.46 298.9l.31-.89s.37.18.8.18c.91 0 1.4-.74 1.54-1.52h-.02c-.2.23-.67.4-1.09.4-1.14 0-1.84-.88-1.84-1.9s.75-1.9 1.9-1.9c1.2 0 2.22.98 2.22 2.69 0 1.49-.87 3.17-2.65 3.17-.73 0-1.18-.24-1.18-.24Zm2.74-3.29c0-.71-.54-1.39-1.14-1.39-.54 0-.87.42-.87.95 0 .58.37 1.06 1.06 1.06.52 0 .94-.27.94-.62ZM72.96 302.97h1.86c.63 0 .91.05 1.16.16.58.26.94.8.94 1.55 0 .68-.37 1.31-.97 1.55v.02s.08.08.19.28l1.19 2.12h-1.17l-1.14-2.12h-1.01v2.12h-1.05v-5.68Zm1.99 2.66c.56 0 .91-.33.91-.9s-.24-.88-1.06-.88H74v1.78h.94ZM78.15 302.97h1.02v.9h-1.02v-.9Zm0 1.6h1.03v4.08h-1.03v-4.08ZM82.26 304.47c1.08 0 1.59.61 1.59.61l-.45.7s-.43-.44-1.08-.44c-.76 0-1.26.57-1.26 1.26s.5 1.28 1.29 1.28c.7 0 1.22-.52 1.22-.52l.4.72s-.59.66-1.7.66c-1.37 0-2.25-.95-2.25-2.14s.88-2.13 2.25-2.13ZM84.74 302.97h1.03v1.97c0 .2-.02.34-.02.34h.02c.2-.39.71-.81 1.43-.81.92 0 1.44.47 1.44 1.55v2.62h-1.02v-2.41c0-.5-.13-.83-.66-.83s-.97.35-1.12.85a1.8 1.8 0 0 0-.06.53v1.87h-1.03v-5.68ZM91.82 306.09h.14v-.06c0-.54-.34-.72-.8-.72-.59 0-1.14.39-1.14.39l-.39-.73s.64-.5 1.62-.5c1.09 0 1.72.59 1.72 1.62v2.55h-.95v-.34c0-.16.02-.29.02-.29h-.02s-.32.72-1.26.72c-.74 0-1.4-.46-1.4-1.27 0-1.3 1.78-1.38 2.45-1.38Zm-.79 1.86c.54 0 .93-.58.93-1.07v-.1h-.18c-.53 0-1.38.07-1.38.64 0 .27.2.53.62.53ZM94.06 304.57h.99v.7c0 .15-.02.29-.02.29h.02c.19-.58.68-1.05 1.31-1.05.1 0 .19.02.19.02v1s-.11-.02-.24-.02c-.44 0-.93.25-1.13.86-.06.2-.09.42-.09.66v1.62h-1.03v-4.08ZM98.84 304.47c.91 0 1.19.52 1.19.52h.02v-2.02h1.03v5.68h-.97v-.34c0-.15.02-.26.02-.26h-.02s-.35.7-1.3.7c-1.12 0-1.83-.87-1.83-2.14s.78-2.13 1.88-2.13Zm.19 3.41c.54 0 1.04-.38 1.04-1.29 0-.63-.34-1.26-1.03-1.26-.57 0-1.04.46-1.04 1.26s.42 1.28 1.03 1.28ZM106.91 302.88c1.4 0 2.13.78 2.13.78l-.5.77s-.66-.6-1.58-.6c-1.22 0-1.93.9-1.93 1.95s.74 2.03 1.94 2.03c1 0 1.67-.72 1.67-.72l.55.74s-.8.92-2.26.92c-1.76 0-2.98-1.29-2.98-2.96s1.27-2.91 2.96-2.91ZM110 302.97h1.03v1.97c0 .2-.02.34-.02.34h.02c.2-.39.71-.81 1.43-.81.92 0 1.44.47 1.44 1.55v2.62h-1.02v-2.41c0-.5-.13-.83-.66-.83s-.97.35-1.12.85a1.8 1.8 0 0 0-.06.53v1.87h-1.03v-5.68ZM114.92 304.57h1.03v2.41c0 .5.13.83.64.83.75 0 1.16-.65 1.16-1.38v-1.87h1.03v4.08h-.99v-.46c0-.16.02-.29.02-.29h-.02c-.2.42-.73.85-1.44.85-.88 0-1.44-.44-1.44-1.55v-2.62ZM121.51 304.47c.91 0 1.19.52 1.19.52h.02v-2.02h1.03v5.68h-.97v-.34c0-.15.02-.26.02-.26h-.02s-.35.7-1.3.7c-1.12 0-1.83-.87-1.83-2.14s.78-2.13 1.88-2.13Zm.19 3.41c.54 0 1.04-.38 1.04-1.29 0-.63-.34-1.26-1.03-1.26-.57 0-1.04.46-1.04 1.26s.42 1.28 1.03 1.28ZM124.66 309.3s.23.17.46.17c.28 0 .56-.17.71-.53l.15-.36-1.75-4.01h1.16l.87 2.35c.08.22.15.55.15.55h.02s.06-.32.14-.54l.81-2.37h1.13l-1.85 4.69a1.55 1.55 0 0 1-1.49 1.06c-.5 0-.86-.26-.86-.26l.34-.76ZM91.16 324h1.25v-3.53h-.02s-.06.14-.25.32l-.46.43-.62-.64 1.44-1.37h.92V324h1.25v.89h-3.52V324ZM95.34 322.04c0-1.63.51-2.93 2.09-2.93s2.09 1.3 2.09 2.93-.52 2.94-2.09 2.94-2.09-1.31-2.09-2.94Zm3.1 0c0-1.1-.23-1.97-1.01-1.97s-1.01.87-1.01 1.97.23 2 1.01 2 1.01-.88 1.01-2ZM100.41 322.28c0-1.49.87-3.17 2.65-3.17.73 0 1.18.24 1.18.24l-.31.89s-.37-.18-.81-.18c-.91 0-1.39.74-1.53 1.52h.02c.2-.23.67-.4 1.08-.4 1.14 0 1.85.87 1.85 1.9s-.75 1.9-1.9 1.9c-1.2 0-2.22-.98-2.22-2.69Zm3.08.79c0-.58-.37-1.05-1.06-1.05-.52 0-.94.26-.94.62 0 .71.53 1.39 1.14 1.39.54 0 .86-.42.86-.96ZM108.49 323.43h-2.02l-.49 1.46h-1.08l2.03-5.68h1.1l2.03 5.68h-1.08l-.49-1.46Zm-1.01-3.24s-.13.56-.24.88l-.51 1.52h1.51l-.51-1.52a9.98 9.98 0 0 1-.23-.88h-.02ZM80.15 328.81h1.12l1.13 2.81c.13.34.29.83.29.83h.02s.15-.5.28-.83l1.13-2.81h1.12l.46 5.68h-1.04l-.24-3.17c-.02-.38 0-.88 0-.88h-.02s-.17.55-.31.88l-.93 2.2h-.92l-.93-2.2c-.14-.33-.32-.89-.32-.89h-.02s.02.51 0 .89l-.24 3.17h-1.05l.47-5.68ZM88.93 331.92h.14v-.06c0-.54-.34-.72-.8-.72-.59 0-1.14.39-1.14.39l-.39-.73s.64-.5 1.62-.5c1.09 0 1.72.59 1.72 1.62v2.55h-.95v-.34c0-.16.02-.29.02-.29h-.02s-.32.72-1.26.72c-.74 0-1.4-.46-1.4-1.27 0-1.3 1.78-1.38 2.45-1.38Zm-.79 1.86c.54 0 .93-.58.93-1.07v-.1h-.18c-.53 0-1.38.07-1.38.64 0 .27.2.53.62.53ZM91.16 330.41h.99v.7c0 .15-.02.29-.02.29h.02c.19-.58.68-1.05 1.31-1.05.1 0 .19.02.19.02v1s-.11-.02-.24-.02c-.44 0-.93.25-1.13.86-.06.2-.09.42-.09.66v1.62h-1.03v-4.08ZM96.32 330.31c1.27 0 2.28.89 2.28 2.13s-1.01 2.14-2.27 2.14-2.28-.88-2.28-2.14 1.01-2.13 2.27-2.13Zm0 3.41c.67 0 1.23-.51 1.23-1.27s-.56-1.27-1.23-1.27-1.23.52-1.23 1.27.56 1.27 1.23 1.27ZM99.55 333.27s.45.45 1.13.45c.29 0 .54-.13.54-.37 0-.61-2.01-.53-2.01-1.84 0-.76.69-1.2 1.58-1.2s1.39.46 1.39.46l-.38.75s-.38-.35-1.01-.35c-.27 0-.53.11-.53.37 0 .58 2.01.5 2.01 1.81 0 .68-.6 1.22-1.58 1.22-1.03 0-1.61-.6-1.61-.6l.47-.71ZM107.81 328.71c1.41 0 2.14.72 2.14.72l-.52.77s-.62-.54-1.53-.54c-1.29 0-1.98.88-1.98 1.95 0 1.23.85 2.03 1.93 2.03.87 0 1.44-.59 1.44-.59v-.66h-.88v-.89h1.83v2.99h-.89v-.51h-.02s-.6.61-1.67.61a2.82 2.82 0 0 1-2.83-2.94 2.89 2.89 0 0 1 2.97-2.93ZM113.35 331.92h.14v-.06c0-.54-.34-.72-.8-.72-.59 0-1.14.39-1.14.39l-.39-.73s.64-.5 1.62-.5c1.09 0 1.72.59 1.72 1.62v2.55h-.95v-.34c0-.16.02-.29.02-.29h-.02s-.32.72-1.26.72c-.74 0-1.4-.46-1.4-1.27 0-1.3 1.78-1.38 2.45-1.38Zm-.79 1.86c.54 0 .93-.58.93-1.07v-.1h-.18c-.53 0-1.38.07-1.38.64 0 .27.2.53.62.53ZM117.68 331.92h.14v-.06c0-.54-.34-.72-.8-.72-.59 0-1.14.39-1.14.39l-.39-.73s.64-.5 1.62-.5c1.09 0 1.72.59 1.72 1.62v2.55h-.95v-.34c0-.16.02-.29.02-.29h-.02s-.32.72-1.26.72c-.74 0-1.4-.46-1.4-1.27 0-1.3 1.78-1.38 2.45-1.38Zm-.79 1.86c.54 0 .93-.58.93-1.07v-.1h-.18c-.53 0-1.38.07-1.38.64 0 .27.2.53.62.53ZM119.86 328.81h1.02v4.25c0 .45.15.56.42.56h.15v.89s-.15.02-.32.02c-.57 0-1.27-.14-1.27-1.31v-4.41ZM93.99 349.83h1.25v-3.53h-.02s-.06.14-.25.32l-.46.43-.62-.64 1.44-1.37h.92v4.79h1.25v.89h-3.52v-.89ZM98.17 347.87c0-1.63.51-2.93 2.09-2.93s2.09 1.3 2.09 2.93-.52 2.94-2.09 2.94-2.09-1.31-2.09-2.94Zm3.1 0c0-1.1-.23-1.97-1.01-1.97s-1.01.87-1.01 1.97.23 2 1.01 2 1.01-.88 1.01-2ZM105.61 346.45c.18-.35.35-.52.35-.52v-.02s-.11.02-.4.02h-2.46v-.89h3.96v.72l-2.52 4.96h-1.09l2.16-4.27ZM68.2 354.64h1.96c1.78 0 2.94 1.04 2.94 2.83s-1.16 2.85-2.94 2.85H68.2v-5.68Zm1.91 4.79c1.17 0 1.92-.68 1.92-1.96s-.76-1.94-1.92-1.94h-.86v3.9h.86ZM76 356.14c1.27 0 2.28.89 2.28 2.13s-1.01 2.14-2.27 2.14-2.28-.88-2.28-2.14 1.01-2.13 2.27-2.13Zm0 3.41c.67 0 1.23-.51 1.23-1.27s-.56-1.27-1.23-1.27-1.23.52-1.23 1.27.56 1.27 1.23 1.27ZM79.12 356.24h.99v.47c0 .15-.02.28-.02.28h.02c.2-.4.7-.85 1.35-.85s1.04.29 1.21.84h.02c.23-.44.76-.84 1.41-.84.86 0 1.36.48 1.36 1.55v2.62h-1.03v-2.43c0-.46-.09-.82-.57-.82-.53 0-.88.42-1 .93-.04.16-.05.34-.05.53v1.79h-1.03v-2.43c0-.44-.07-.82-.56-.82-.54 0-.88.42-1.01.94-.04.15-.05.34-.05.52v1.79h-1.03v-4.08ZM86.53 354.64h1.02v.9h-1.02v-.9Zm0 1.6h1.03v4.08h-1.03v-4.08ZM88.7 356.24h.99v.47c0 .15-.02.28-.02.28h.02c.18-.34.63-.85 1.47-.85.92 0 1.44.47 1.44 1.55v2.62h-1.02v-2.41c0-.5-.13-.83-.66-.83s-.96.34-1.11.83a1.6 1.6 0 0 0-.07.54v1.87h-1.03v-4.08ZM93.68 354.64h1.02v.9h-1.02v-.9Zm0 1.6h1.03v4.08h-1.03v-4.08ZM95.85 354.64h1.03v3.04h.51l1-1.44h1.15l-1.31 1.82v.02l1.47 2.24h-1.19l-1.1-1.78h-.54v1.78h-1.03v-5.68ZM102.76 354.64h1.12l1.13 2.81c.13.34.29.83.29.83h.02s.15-.5.28-.83l1.13-2.81h1.12l.46 5.68h-1.04l-.24-3.17c-.02-.38 0-.88 0-.88h-.02s-.17.55-.31.88l-.93 2.2h-.92l-.93-2.2c-.14-.33-.32-.89-.32-.89h-.02s.02.51 0 .89l-.24 3.17h-1.05l.47-5.68ZM111.24 356.14c1.19 0 1.83.86 1.83 1.94l-.02.39h-2.86c.07.71.63 1.08 1.24 1.08.67 0 1.19-.45 1.19-.45l.4.73s-.63.58-1.66.58c-1.37 0-2.22-.98-2.22-2.14 0-1.26.87-2.13 2.1-2.13Zm.8 1.63c-.02-.55-.37-.85-.82-.85-.53 0-.89.32-.99.85h1.81ZM114.05 359.1s.45.45 1.13.45c.29 0 .54-.13.54-.37 0-.61-2.01-.53-2.01-1.84 0-.76.69-1.2 1.58-1.2s1.39.46 1.39.46l-.38.75s-.38-.35-1.01-.35c-.27 0-.53.11-.53.37 0 .58 2.01.5 2.01 1.81 0 .68-.6 1.22-1.58 1.22-1.03 0-1.61-.6-1.61-.6l.47-.71ZM119.71 357.76h.14v-.06c0-.54-.34-.72-.8-.72-.59 0-1.14.39-1.14.39l-.39-.73s.64-.5 1.62-.5c1.09 0 1.72.59 1.72 1.62v2.55h-.95v-.34c0-.16.02-.29.02-.29h-.02s-.32.72-1.26.72c-.74 0-1.4-.46-1.4-1.27 0-1.3 1.78-1.38 2.45-1.38Zm-.79 1.86c.54 0 .93-.58.93-1.07v-.1h-.18c-.53 0-1.38.07-1.38.64 0 .27.2.53.62.53ZM121.94 356.24h.99v.7c0 .15-.02.29-.02.29h.02c.19-.58.68-1.05 1.31-1.05.1 0 .19.02.19.02v1s-.11-.02-.24-.02c-.44 0-.93.25-1.13.86-.06.2-.09.42-.09.66v1.62h-1.03v-4.08ZM127.1 356.14c1.27 0 2.28.89 2.28 2.13s-1.02 2.14-2.27 2.14-2.28-.88-2.28-2.14 1.01-2.13 2.27-2.13Zm0 3.41c.67 0 1.23-.51 1.23-1.27s-.56-1.27-1.23-1.27-1.23.52-1.23 1.27.56 1.27 1.23 1.27ZM130.33 359.1s.45.45 1.13.45c.29 0 .54-.13.54-.37 0-.61-2.01-.53-2.01-1.84 0-.76.69-1.2 1.58-1.2s1.39.46 1.39.46l-.38.75s-.38-.35-1.01-.35c-.27 0-.53.11-.53.37 0 .58 2.01.5 2.01 1.81 0 .68-.6 1.22-1.58 1.22-1.03 0-1.61-.6-1.61-.6l.47-.71ZM93.74 375.66h1.25v-3.53h-.02s-.06.14-.25.32l-.46.43-.62-.64 1.44-1.37H96v4.79h1.25v.89h-3.52v-.89ZM97.92 373.71c0-1.63.51-2.93 2.09-2.93s2.09 1.3 2.09 2.93-.52 2.94-2.09 2.94-2.09-1.31-2.09-2.94Zm3.1 0c0-1.1-.23-1.97-1.01-1.97s-1.01.87-1.01 1.97.23 2 1.01 2 1.01-.88 1.01-2ZM103.21 376.41l.31-.89s.37.18.8.18c.91 0 1.4-.74 1.54-1.52h-.02c-.2.23-.67.4-1.09.4-1.14 0-1.84-.88-1.84-1.9s.75-1.9 1.9-1.9c1.2 0 2.22.98 2.22 2.69 0 1.49-.87 3.17-2.65 3.17-.73 0-1.18-.24-1.18-.24Zm2.74-3.29c0-.71-.54-1.39-1.14-1.39-.54 0-.87.42-.87.95 0 .58.37 1.06 1.06 1.06.52 0 .94-.27.94-.62ZM75.47 380.48h1.12l1.13 2.81c.13.34.29.83.29.83h.02s.15-.5.28-.83l1.13-2.81h1.12l.46 5.68h-1.04l-.24-3.17c-.02-.38 0-.88 0-.88h-.02s-.17.55-.31.88l-.93 2.2h-.92l-.93-2.2c-.14-.33-.32-.89-.32-.89h-.02s.02.51 0 .89l-.24 3.17H75l.47-5.68ZM84.24 383.59h.14v-.06c0-.54-.34-.72-.8-.72-.59 0-1.14.39-1.14.39l-.39-.73s.64-.5 1.62-.5c1.09 0 1.72.59 1.72 1.62v2.55h-.95v-.34c0-.16.02-.29.02-.29h-.02s-.32.72-1.26.72c-.74 0-1.4-.46-1.4-1.27 0-1.3 1.78-1.38 2.45-1.38Zm-.79 1.86c.54 0 .93-.58.93-1.07v-.1h-.18c-.53 0-1.38.07-1.38.64 0 .27.2.53.62.53ZM86.48 382.07h.99v.7c0 .15-.02.29-.02.29h.02c.19-.58.68-1.05 1.31-1.05.1 0 .19.02.19.02v1s-.11-.02-.24-.02c-.44 0-.93.25-1.13.86-.06.2-.09.42-.09.66v1.62h-1.03v-4.08ZM91.62 381.98c1.08 0 1.59.61 1.59.61l-.45.7s-.43-.44-1.08-.44c-.76 0-1.26.57-1.26 1.26s.5 1.28 1.29 1.28c.7 0 1.22-.52 1.22-.52l.4.72s-.59.66-1.7.66c-1.37 0-2.25-.95-2.25-2.14s.88-2.13 2.25-2.13ZM95.91 381.98c1.19 0 1.83.86 1.83 1.94l-.02.39h-2.86c.07.71.63 1.08 1.24 1.08.67 0 1.19-.45 1.19-.45l.4.73s-.63.58-1.66.58c-1.37 0-2.22-.98-2.22-2.14 0-1.26.87-2.13 2.1-2.13Zm.8 1.63c-.02-.55-.37-.85-.82-.85-.53 0-.89.32-.99.85h1.81ZM98.54 380.48h1.02v4.25c0 .45.15.56.42.56h.15v.89s-.15.02-.32.02c-.57 0-1.27-.14-1.27-1.31v-4.41ZM103.17 384.7s.62.6 1.44.6c.44 0 .84-.22.84-.69 0-1.02-2.72-.84-2.72-2.58 0-.94.83-1.65 1.93-1.65s1.72.61 1.72.61l-.45.84s-.55-.5-1.27-.5c-.49 0-.87.28-.87.68 0 1.01 2.71.76 2.71 2.57 0 .9-.7 1.66-1.9 1.66-1.28 0-1.99-.78-1.99-.78l.57-.78ZM109.34 381.98c1.27 0 2.28.89 2.28 2.13s-1.01 2.14-2.27 2.14-2.28-.88-2.28-2.14 1.01-2.13 2.27-2.13Zm0 3.41c.67 0 1.23-.51 1.23-1.27s-.56-1.27-1.23-1.27-1.23.52-1.23 1.27.56 1.27 1.23 1.27ZM112.45 382.07h.94v.3c0 .15-.02.28-.02.28h.02s.36-.67 1.33-.67c1.12 0 1.83.87 1.83 2.13s-.8 2.14-1.89 2.14c-.82 0-1.19-.56-1.19-.56h-.02s.02.14.02.35v1.71h-1.03v-5.68Zm2.03 3.32c.57 0 1.04-.46 1.04-1.26s-.42-1.28-1.03-1.28c-.54 0-1.04.38-1.04 1.29 0 .63.35 1.26 1.03 1.26ZM117.41 380.48h1.03v3.04h.51l1-1.44h1.15l-1.31 1.82v.02l1.47 2.24h-1.19l-1.1-1.78h-.54v1.78h-1.03v-5.68ZM123.79 381.98c1.27 0 2.28.89 2.28 2.13s-1.02 2.14-2.27 2.14-2.28-.88-2.28-2.14 1.01-2.13 2.27-2.13Zm0 3.41c.67 0 1.23-.51 1.23-1.27s-.56-1.27-1.23-1.27-1.23.52-1.23 1.27.56 1.27 1.23 1.27ZM94.12 400.5h1.25v-3.53h-.02s-.06.14-.25.32l-.46.43-.62-.64 1.44-1.37h.92v4.79h1.25v.89h-3.52v-.89ZM98.27 400.5h1.25v-3.53h-.02s-.06.14-.25.32l-.46.43-.62-.64 1.44-1.37h.92v4.79h1.25v.89h-3.52v-.89ZM102.46 398.54c0-1.63.51-2.93 2.09-2.93s2.09 1.3 2.09 2.93-.52 2.94-2.09 2.94-2.09-1.31-2.09-2.94Zm3.1 0c0-1.1-.23-1.97-1.01-1.97s-1.01.87-1.01 1.97.23 2 1.01 2 1.01-.88 1.01-2ZM76.33 405.31h1.05v4.79h2.49v.89h-3.54v-5.68ZM80.48 406.91h1.03v2.41c0 .5.13.83.64.83.75 0 1.16-.65 1.16-1.38v-1.87h1.03v4.08h-.99v-.46c0-.16.02-.29.02-.29h-.02c-.2.42-.73.85-1.44.85-.88 0-1.44-.44-1.44-1.55v-2.62ZM85.49 405.31h1.03v3.04h.51l1-1.44h1.15l-1.31 1.82v.02l1.47 2.24h-1.19l-1.1-1.78h-.54v1.78h-1.03v-5.68ZM92.07 408.43h.14v-.06c0-.54-.34-.72-.8-.72-.59 0-1.14.39-1.14.39l-.39-.73s.64-.5 1.62-.5c1.09 0 1.72.59 1.72 1.62v2.55h-.95v-.34c0-.16.02-.29.02-.29h-.02s-.32.72-1.26.72c-.74 0-1.4-.46-1.4-1.27 0-1.3 1.78-1.38 2.45-1.38Zm-.79 1.86c.54 0 .93-.58.93-1.07v-.1h-.18c-.53 0-1.38.07-1.38.64 0 .27.2.53.62.53ZM94.43 409.77s.45.45 1.13.45c.29 0 .54-.13.54-.37 0-.61-2.01-.53-2.01-1.84 0-.76.69-1.2 1.58-1.2s1.39.46 1.39.46l-.38.75s-.38-.35-1.01-.35c-.27 0-.53.11-.53.37 0 .58 2.01.5 2.01 1.81 0 .68-.6 1.22-1.58 1.22-1.03 0-1.61-.6-1.61-.6l.47-.71ZM99.38 405.31h1.13l1.27 3.7c.11.33.21.83.22.83h.02s.11-.5.22-.83l1.27-3.7h1.12l-2.1 5.68h-1.04l-2.1-5.68ZM107.13 408.43h.14v-.06c0-.54-.34-.72-.8-.72-.59 0-1.14.39-1.14.39l-.39-.73s.64-.5 1.62-.5c1.09 0 1.72.59 1.72 1.62v2.55h-.95v-.34c0-.16.02-.29.02-.29h-.02s-.32.72-1.26.72c-.74 0-1.4-.46-1.4-1.27 0-1.3 1.78-1.38 2.45-1.38Zm-.79 1.86c.54 0 .93-.58.93-1.07v-.1h-.18c-.53 0-1.38.07-1.38.64 0 .27.2.53.62.53ZM108.8 406.91h1.09l.86 2.53c.08.24.14.62.15.62h.02s.07-.38.15-.62l.86-2.53h1.09l-1.49 4.08h-1.22l-1.5-4.08ZM113.58 406.91h.99v.7c0 .15-.02.29-.02.29h.02c.19-.58.68-1.05 1.31-1.05.1 0 .19.02.19.02v1s-.11-.02-.24-.02c-.44 0-.93.25-1.13.86-.06.2-.09.42-.09.66v1.62h-1.03v-4.08ZM118.58 406.81c1.19 0 1.83.86 1.83 1.94l-.02.39h-2.86c.07.71.63 1.08 1.24 1.08.67 0 1.19-.45 1.19-.45l.4.73s-.63.58-1.66.58c-1.37 0-2.22-.98-2.22-2.14 0-1.26.87-2.13 2.1-2.13Zm.8 1.63c-.02-.55-.37-.85-.82-.85-.53 0-.89.32-.99.85h1.81ZM121.27 405.31h1.03v3.04h.51l1-1.44h1.15l-1.31 1.82v.02l1.47 2.24h-1.19l-1.1-1.78h-.54v1.78h-1.03v-5.68Z"
          class="cls-2" style="fill: rgb(255, 255, 255);"/>
      </g>
      <path id="Exterior_Wall" d="M1 469.21V1h504.79v468.21H1ZM503.79 3H3v464.21h500.79V3Z" class="cls-4"
            style="stroke: rgb(116, 119, 130);"/>
      <g id="Building_Labels">
        <path
          d="m275.27 58.87.1.09.27.2c.14.09.27.18.42.25s.32.14.53.2c.21.06.42.09.63.09.32 0 .58-.08.8-.25s.33-.4.33-.7c0-.25-.13-.47-.38-.67s-.56-.36-.92-.51l-1.08-.48a2.67 2.67 0 0 1-.92-.75 1.8 1.8 0 0 1-.38-1.14c0-.65.25-1.18.75-1.62.5-.43 1.12-.65 1.87-.65a3.76 3.76 0 0 1 2.09.63l.24.21-.62 1.16-.24-.19a3.2 3.2 0 0 0-1.49-.49c-.34 0-.62.09-.84.26a.84.84 0 0 0-.34.67c0 .25.13.47.38.65.25.18.56.34.92.48.36.14.72.3 1.08.47s.67.43.92.75.38.72.38 1.18c0 .65-.23 1.19-.7 1.63-.47.44-1.09.66-1.88.66a4.17 4.17 0 0 1-2.24-.68c-.15-.11-.27-.2-.34-.27l-.11-.11.77-1.07ZM280.97 53.06h1.4v2.71l-.02.47h.02a2.15 2.15 0 0 1 1.93-1.11c1.3 0 1.95.71 1.95 2.13v3.61h-1.39v-3.32c0-.37-.06-.66-.19-.85s-.36-.29-.7-.29c-.36 0-.67.11-.95.32-.27.22-.46.5-.57.84-.06.2-.09.44-.09.73v2.57h-1.4v-7.81ZM287.42 58.49c.12-.22.28-.4.49-.53a3.16 3.16 0 0 1 1.4-.52 7.75 7.75 0 0 1 1.26-.1h.19v-.08c0-.66-.36-.99-1.08-.99a2.78 2.78 0 0 0-1.33.41l-.21.13-.53-1 .28-.19c.12-.08.37-.18.75-.31s.77-.19 1.17-.19c.74 0 1.31.19 1.72.58.41.39.61.94.61 1.65v3.51h-1.29v-.46l.02-.4h-.02s0 .04-.04.1c-.04.07-.1.15-.19.25-.09.09-.19.19-.32.29a2.07 2.07 0 0 1-1.16.35c-.53 0-.98-.16-1.35-.47a1.6 1.6 0 0 1-.56-1.28c0-.29.06-.54.18-.76Zm1.45 1.2c.15.14.36.21.63.21.35 0 .65-.16.9-.47.25-.31.37-.65.37-1.01v-.13h-.24c-1.25 0-1.87.29-1.87.88 0 .2.07.37.22.51ZM293.59 55.26h1.34v.97l-.02.4h.02c.13-.42.36-.76.68-1.03.32-.27.69-.41 1.11-.41l.25.02v1.38l-.33-.02c-.33 0-.64.1-.92.3s-.49.49-.61.88a3 3 0 0 0-.12.91v2.22h-1.4v-5.61ZM298.31 55.94a2.73 2.73 0 0 1 2.05-.82c.78 0 1.4.25 1.83.75.44.5.65 1.14.65 1.91l-.03.54h-3.87c.04.47.23.83.54 1.09.32.26.7.39 1.14.39a2.72 2.72 0 0 0 1.42-.46l.2-.15.54 1-.1.09c-.04.04-.14.1-.29.19s-.31.17-.47.24a3.87 3.87 0 0 1-1.4.28 2.9 2.9 0 0 1-3.01-2.93c0-.87.27-1.57.8-2.12Zm3.13 1.42c0-.37-.12-.65-.32-.86s-.47-.31-.79-.31c-.36 0-.66.1-.89.31s-.39.49-.45.86h2.45ZM304.33 55.93a2.31 2.31 0 0 1 1.83-.81c.23 0 .44.02.64.07a1.78 1.78 0 0 1 .76.39c.08.07.14.13.17.18l.05.08h.02l-.01-.32v-2.46h1.4v7.81h-1.32v-.46l.02-.36h-.02l-.06.1-.19.23c-.1.11-.21.21-.34.29a2.15 2.15 0 0 1-1.18.33c-.76 0-1.36-.27-1.81-.81-.45-.54-.68-1.25-.68-2.12s.24-1.59.71-2.13Zm1.08 3.41c.26.32.59.48 1.01.48.4 0 .73-.15 1-.45.27-.3.41-.74.41-1.33 0-.47-.12-.88-.37-1.22s-.59-.51-1.03-.51c-.4 0-.74.16-1.01.47s-.4.74-.4 1.27.13.95.38 1.28ZM313.62 53.06h3.01c.73 0 1.33.24 1.79.7.46.47.69 1.08.69 1.84s-.23 1.37-.69 1.85-1.06.72-1.79.72h-1.6v2.7h-1.42v-7.81Zm2.75 3.88c.41 0 .73-.12.96-.36.23-.24.35-.57.35-.98s-.12-.72-.35-.96-.54-.36-.94-.36h-1.35v2.66h1.33ZM319.86 58.49c.12-.22.28-.4.49-.53a3.16 3.16 0 0 1 1.4-.52 7.75 7.75 0 0 1 1.26-.1h.19v-.08c0-.66-.36-.99-1.08-.99a2.78 2.78 0 0 0-1.33.41l-.21.13-.53-1 .28-.19c.12-.08.37-.18.75-.31s.77-.19 1.17-.19c.74 0 1.31.19 1.72.58.41.39.61.94.61 1.65v3.51h-1.29v-.46l.02-.4h-.02s0 .04-.04.1c-.04.07-.1.15-.19.25-.09.09-.19.19-.32.29a2.07 2.07 0 0 1-1.16.35c-.53 0-.98-.16-1.35-.47a1.6 1.6 0 0 1-.56-1.28c0-.29.06-.54.18-.76Zm1.45 1.2c.15.14.36.21.63.21.35 0 .65-.16.9-.47.25-.31.37-.65.37-1.01v-.13h-.24c-1.25 0-1.87.29-1.87.88 0 .2.07.37.22.51ZM326.03 55.26h1.34v.97l-.02.4h.02c.13-.42.36-.76.68-1.03.32-.27.69-.41 1.11-.41l.25.02v1.38l-.33-.02c-.33 0-.64.1-.92.3s-.49.49-.61.88a3 3 0 0 0-.12.91v2.22h-1.4v-5.61ZM330.35 53.06h1.4v4.18h.69l1.35-1.98h1.55l-1.77 2.51v.02l1.99 3.08h-1.61l-1.48-2.45h-.73v2.45h-1.4v-7.81ZM336.42 53.06h1.39v1.24h-1.39v-1.24Zm0 2.2h1.4v5.61h-1.4v-5.61ZM339.36 55.26h1.34v.65l-.02.39h.02c.15-.3.4-.57.73-.81.33-.24.75-.36 1.26-.36 1.3 0 1.95.71 1.95 2.13v3.61h-1.39v-3.32c0-.37-.06-.66-.19-.85s-.36-.29-.7-.29c-.37 0-.68.1-.95.31-.26.21-.45.49-.56.83-.07.2-.1.45-.1.75v2.57h-1.4v-5.61ZM348.23 61.99c.47 0 .85-.11 1.14-.33s.44-.56.44-1.03v-.33l.02-.3h-.02c-.34.51-.86.76-1.56.76-.78 0-1.39-.27-1.84-.82-.45-.55-.68-1.22-.68-2.02s.22-1.47.66-2a2.25 2.25 0 0 1 1.83-.79c.23 0 .44.02.64.07a1.86 1.86 0 0 1 .79.39c.08.07.15.13.18.18l.05.08h.03l-.01-.15v-.43h1.31v5.27c0 .46-.08.87-.25 1.22-.17.35-.4.63-.68.83-.29.2-.6.35-.94.45a4.2 4.2 0 0 1-3.07-.33l.42-1.07c.47.24.99.36 1.55.36Zm1.25-2.79c.24-.26.36-.68.36-1.27 0-1.08-.46-1.62-1.39-1.62-.42 0-.74.14-.97.42s-.35.66-.35 1.14c0 .51.12.92.37 1.23.25.31.59.47 1.03.47.38 0 .69-.13.94-.38ZM61.21 58.87h-2.74l-.66 2h-1.46l2.75-7.81h1.49l2.75 7.81h-1.46l-.66-2Zm-1.38-4.46c-.12.51-.23.92-.33 1.21l-.69 2.09h2.05l-.69-2.09-.31-1.21h-.02ZM64.28 59.2l.19.17a2.54 2.54 0 0 0 1.34.45c.21 0 .38-.04.52-.13s.21-.21.21-.37c0-.15-.09-.28-.28-.4s-.41-.23-.68-.34c-.27-.1-.54-.22-.8-.36-.27-.14-.5-.32-.68-.57s-.28-.53-.28-.87c0-.51.2-.91.6-1.2.4-.3.92-.45 1.54-.45a3.1 3.1 0 0 1 1.69.48l.19.15-.52 1.03-.17-.14c-.07-.05-.23-.13-.47-.21s-.49-.13-.74-.13c-.2 0-.37.04-.51.13a.4.4 0 0 0-.21.38c0 .14.09.27.28.38.19.11.41.22.68.32s.54.22.8.35c.27.13.5.32.68.57s.28.54.28.88c0 .48-.19.88-.58 1.2s-.91.48-1.56.48c-.41 0-.8-.07-1.16-.21a2.82 2.82 0 0 1-.79-.41l-.23-.21.64-.98ZM69.25 59.2l.19.17a2.54 2.54 0 0 0 1.34.45c.21 0 .38-.04.52-.13s.21-.21.21-.37c0-.15-.09-.28-.28-.4s-.41-.23-.68-.34c-.27-.1-.54-.22-.8-.36-.27-.14-.5-.32-.68-.57s-.28-.53-.28-.87c0-.51.2-.91.6-1.2.4-.3.92-.45 1.54-.45a3.1 3.1 0 0 1 1.69.48l.19.15-.52 1.03-.17-.14c-.07-.05-.23-.13-.47-.21s-.49-.13-.74-.13c-.2 0-.37.04-.51.13a.4.4 0 0 0-.21.38c0 .14.09.27.28.38.19.11.41.22.68.32s.54.22.8.35c.27.13.5.32.68.57.19.25.28.54.28.88 0 .48-.19.88-.58 1.2s-.91.48-1.56.48c-.41 0-.8-.07-1.16-.21a2.97 2.97 0 0 1-.79-.41l-.23-.21.64-.98ZM74.06 53.06h1.39v1.24h-1.39v-1.24Zm0 2.2h1.4v5.61h-1.4v-5.61ZM79.12 61.99c.47 0 .85-.11 1.14-.33.29-.22.44-.56.44-1.03v-.33l.02-.3h-.02c-.34.51-.86.76-1.56.76-.78 0-1.39-.27-1.84-.82-.45-.55-.68-1.22-.68-2.02s.22-1.47.66-2a2.25 2.25 0 0 1 1.83-.79c.23 0 .44.02.64.07a1.86 1.86 0 0 1 .79.39c.08.07.15.13.18.18l.05.08h.03l-.01-.15v-.43h1.31v5.27c0 .46-.08.87-.25 1.22-.17.35-.4.63-.68.83-.29.2-.6.35-.94.45a4.2 4.2 0 0 1-3.07-.33l.42-1.07c.47.24.99.36 1.55.36Zm1.25-2.79c.24-.26.36-.68.36-1.27 0-1.08-.46-1.62-1.39-1.62-.42 0-.74.14-.97.42s-.35.66-.35 1.14c0 .51.12.92.37 1.23.25.31.59.47 1.03.47.38 0 .69-.13.94-.38ZM83.64 55.26h1.34v.65l-.02.39h.02c.15-.3.4-.57.73-.81.33-.24.75-.36 1.26-.36 1.3 0 1.95.71 1.95 2.13v3.61h-1.39v-3.32c0-.37-.06-.66-.19-.85s-.36-.29-.7-.29c-.37 0-.68.1-.95.31-.26.21-.45.49-.56.83-.07.2-.1.45-.1.75v2.57h-1.4v-5.61ZM90.78 55.94a2.73 2.73 0 0 1 2.05-.82c.78 0 1.4.25 1.83.75.44.5.65 1.14.65 1.91l-.03.54h-3.87c.04.47.23.83.54 1.09.32.26.7.39 1.14.39a2.72 2.72 0 0 0 1.42-.46l.2-.15.54 1-.1.09c-.04.04-.14.1-.29.19s-.31.17-.47.24a3.87 3.87 0 0 1-1.4.28 2.9 2.9 0 0 1-3.01-2.93c0-.87.27-1.57.8-2.12Zm3.13 1.42c0-.37-.12-.65-.32-.86s-.47-.31-.79-.31c-.36 0-.66.1-.89.31s-.39.49-.45.86h2.45ZM96.8 55.93a2.31 2.31 0 0 1 1.83-.81c.23 0 .44.02.64.07a1.78 1.78 0 0 1 .76.39c.08.07.14.13.17.18l.05.08h.02l-.01-.32v-2.46h1.4v7.81h-1.32v-.46l.02-.36h-.02l-.06.1-.19.23c-.1.11-.21.21-.34.29a2.15 2.15 0 0 1-1.18.33c-.76 0-1.36-.27-1.81-.81-.45-.54-.68-1.25-.68-2.12s.24-1.59.71-2.13Zm1.08 3.41c.26.32.59.48 1.01.48.4 0 .73-.15 1-.45.27-.3.41-.74.41-1.33 0-.47-.12-.88-.37-1.22s-.59-.51-1.03-.51c-.4 0-.74.16-1.01.47s-.4.74-.4 1.27.13.95.38 1.28ZM106.09 53.06h3.01c.73 0 1.33.24 1.79.7.46.47.69 1.08.69 1.84s-.23 1.37-.69 1.85-1.06.72-1.79.72h-1.6v2.7h-1.42v-7.81Zm2.75 3.88c.41 0 .73-.12.96-.36.23-.24.35-.57.35-.98s-.12-.72-.35-.96-.54-.36-.94-.36h-1.35v2.66h1.33ZM112.32 58.49c.12-.22.28-.4.49-.53a3.16 3.16 0 0 1 1.4-.52 7.75 7.75 0 0 1 1.26-.1h.19v-.08c0-.66-.36-.99-1.08-.99a2.78 2.78 0 0 0-1.33.41l-.21.13-.53-1 .28-.19c.12-.08.37-.18.75-.31s.77-.19 1.17-.19c.74 0 1.31.19 1.72.58.41.39.61.94.61 1.65v3.51h-1.29v-.46l.02-.4h-.02s0 .04-.04.1c-.04.07-.1.15-.19.25-.09.09-.19.19-.32.29a2.07 2.07 0 0 1-1.16.35c-.53 0-.98-.16-1.35-.47a1.6 1.6 0 0 1-.56-1.28c0-.29.06-.54.18-.76Zm1.45 1.2c.15.14.36.21.63.21.35 0 .65-.16.9-.47.25-.31.37-.65.37-1.01v-.13h-.24c-1.25 0-1.87.29-1.87.88 0 .2.07.37.22.51ZM118.5 55.26h1.34v.97l-.02.4h.02c.13-.42.36-.76.68-1.03.32-.27.69-.41 1.11-.41l.25.02v1.38l-.33-.02c-.33 0-.64.1-.92.3s-.49.49-.61.88a3 3 0 0 0-.12.91v2.22h-1.4v-5.61ZM122.82 53.06h1.4v4.18h.69l1.35-1.98h1.55l-1.77 2.51v.02l1.99 3.08h-1.61l-1.48-2.45h-.73v2.45h-1.4v-7.81ZM128.89 53.06h1.39v1.24h-1.39v-1.24Zm0 2.2h1.4v5.61h-1.4v-5.61ZM131.83 55.26h1.34v.65l-.02.39h.02c.15-.3.4-.57.73-.81.33-.24.75-.36 1.26-.36 1.3 0 1.95.71 1.95 2.13v3.61h-1.39v-3.32c0-.37-.06-.66-.19-.85s-.36-.29-.7-.29c-.37 0-.68.1-.95.31-.26.21-.45.49-.56.83-.07.2-.1.45-.1.75v2.57h-1.4v-5.61ZM140.69 61.99c.47 0 .85-.11 1.14-.33s.44-.56.44-1.03v-.33l.02-.3h-.02c-.34.51-.86.76-1.56.76-.78 0-1.39-.27-1.84-.82-.45-.55-.68-1.22-.68-2.02s.22-1.47.66-2a2.25 2.25 0 0 1 1.83-.79c.23 0 .44.02.64.07a1.86 1.86 0 0 1 .79.39c.08.07.15.13.18.18l.05.08h.03l-.01-.15v-.43h1.31v5.27c0 .46-.08.87-.25 1.22-.17.35-.4.63-.68.83-.29.2-.6.35-.94.45a4.2 4.2 0 0 1-3.07-.33l.42-1.07c.47.24.99.36 1.55.36Zm1.25-2.79c.24-.26.36-.68.36-1.27 0-1.08-.46-1.62-1.39-1.62-.42 0-.74.14-.97.42s-.35.66-.35 1.14c0 .51.12.92.37 1.23.25.31.59.47 1.03.47.38 0 .69-.13.94-.38Z"
          class="cls-2" style="fill: rgb(139, 139, 139);"/>
      </g>
    </svg>
  </g>
</svg>
