<?xml version="1.0" encoding="utf-8"?>
<svg viewBox="266.894 95.443 353.605 312.731" xmlns="http://www.w3.org/2000/svg">
  <defs>
    <style>
      .cls-2{fill:#22242d}.cls-2,.cls-3{stroke:#c4c4c4;stroke-miterlimit:10}.cls-2,.cls-3{stroke-width:2px}.cls-3{fill:none}.cls-4{fill:#fff}
    </style>
  </defs>
  <path style="fill: rgb(245, 245, 245);" d="M 359.514 156.384 L 518.316 156.384 L 518.316 280.101 L 359.514 280.101 Z" id="Floor_BG" data-name="Floor BG"/>
  <g id="Bookable_Slots" data-name="Bookable Parking" transform="matrix(0.391126, 0, 0, 0.320344, 358.731445, 155.743576)" style="">
    <path id="P01" class="cls-2" style="fill:url(#unavailable-1) rgb(215, 6, 59);cursor:pointer;stroke:rgb(116, 119, 130)" d="M169.875 79.855h94.779v25.834h-94.779z"/>
    <path id="P02" class="cls-2" style="fill:url(#unavailable-1) rgb(215, 6, 59);cursor:pointer;stroke:rgb(116, 119, 130)" d="M169.875 105.69h94.779v25.834h-94.779z"/>
    <path id="P03" class="cls-2" style="fill:url(#unavailable-1) rgb(215, 6, 59);cursor:pointer;stroke:rgb(116, 119, 130)" d="M169.875 131.524h94.779v25.834h-94.779z"/>
    <path id="P04" class="cls-2" style="fill:url(#unavailable-1) rgb(215, 6, 59);cursor:pointer;stroke:rgb(116, 119, 130)" d="M169.875 157.359h94.779v25.834h-94.779z"/>
    <path id="P05" class="cls-2" style="fill:rgb(126, 211, 33);cursor:pointer;stroke:rgb(116, 119, 130)" d="M169.875 183.193h94.779v25.834h-94.779z"/>
    <path id="P06" class="cls-2" style="fill:rgb(126, 211, 33);cursor:pointer;stroke:rgb(116, 119, 130)" d="M169.875 209.028h94.779v25.834h-94.779z"/>
    <path id="P07" class="cls-2" style="fill:rgb(126, 211, 33);cursor:pointer;stroke:rgb(116, 119, 130)" d="M169.875 234.862h94.779v25.834h-94.779z"/>
    <path id="P08" class="cls-2" style="fill:url(#unavailable-1) rgb(215, 6, 59);cursor:pointer;stroke:rgb(116, 119, 130)" d="M169.875 260.697h94.779v25.834h-94.779z"/>
    <path id="P09" class="cls-2" style="fill:rgb(126, 211, 33);cursor:pointer;stroke:rgb(116, 119, 130)" d="M169.875 286.531h94.779v25.834h-94.779z"/>
    <path id="P10" class="cls-2" style="fill:rgb(126, 211, 33);cursor:pointer;stroke:rgb(116, 119, 130)" d="M169.875 312.365h94.779v25.834h-94.779z"/>
    <path id="P11" class="cls-2" style="fill:rgb(126, 211, 33);cursor:pointer;stroke:rgb(116, 119, 130)" d="M264.654 79.855h94.779v25.834h-94.779z"/>
    <path id="P12" class="cls-2" style="fill:rgb(126, 211, 33);cursor:pointer;stroke:rgb(116, 119, 130)" d="M264.654 105.69h94.779v25.834h-94.779z"/>
    <path id="P13" class="cls-2" style="fill:url(#unavailable-1) rgb(215, 6, 59);cursor:pointer;stroke:rgb(116, 119, 130)" d="M264.654 131.524h94.779v25.834h-94.779z"/>
    <path id="P14" class="cls-2" style="fill:rgb(126, 211, 33);cursor:pointer;stroke:rgb(116, 119, 130)" d="M264.654 157.359h94.779v25.834h-94.779z"/>
    <path id="P15" class="cls-2" style="fill:rgb(126, 211, 33);cursor:pointer;stroke:rgb(116, 119, 130)" d="M264.654 183.193h94.779v25.834h-94.779z"/>
    <path id="P16" class="cls-2" style="fill:rgb(126, 211, 33);cursor:pointer;stroke:rgb(116, 119, 130)" d="M264.654 209.028h94.779v25.834h-94.779z"/>
    <path id="P17" class="cls-2" style="fill:rgb(126, 211, 33);cursor:pointer;stroke:rgb(116, 119, 130)" d="M264.654 234.862h94.779v25.834h-94.779z"/>
    <path id="P18" class="cls-2" style="fill:rgb(126, 211, 33);cursor:pointer;stroke:rgb(116, 119, 130)" d="M264.654 260.697h94.779v25.834h-94.779z"/>
    <path id="P19" class="cls-2" style="fill:rgb(126, 211, 33);cursor:pointer;stroke:rgb(116, 119, 130)" d="M264.654 286.531h94.779v25.834h-94.779z"/>
    <path id="P20" class="cls-2" style="fill:rgb(126, 211, 33);cursor:pointer;stroke:rgb(116, 119, 130)" d="M264.654 312.365h94.779v25.834h-94.779z"/>
    <path id="P100" class="cls-3" style="fill:rgb(196, 196, 196);cursor:pointer;stroke:rgb(116, 119, 130)" d="M52 79.855h94.779v25.834H52z"/>
    <path id="P227" class="cls-3" style="fill:url(#unavailable-1) rgb(215, 6, 59);cursor:pointer;stroke:rgb(116, 119, 130)" d="M52 105.69h94.779v25.834H52z"/>
    <path id="P228" class="cls-3" style="fill:rgb(196, 196, 196);cursor:pointer;stroke:rgb(116, 119, 130)" d="M52 131.524h94.779v25.834H52z"/>
    <path id="P229" class="cls-3" style="fill:rgb(196, 196, 196);cursor:pointer;stroke:rgb(116, 119, 130)" d="M52 157.359h94.779v25.834H52z"/>
    <path id="P230" class="cls-3" style="fill:rgb(126, 211, 33);cursor:pointer;stroke:rgb(116, 119, 130)" d="M52 183.193h94.779v25.834H52z"/>
    <path id="P235" class="cls-3" style="fill:url(#unavailable-1) rgb(215, 6, 59);cursor:pointer;stroke:rgb(116, 119, 130)" d="M52 209.028h94.779v25.834H52z"/>
    <path id="P244" class="cls-3" style="fill:rgb(126, 211, 33);cursor:pointer;stroke:rgb(116, 119, 130)" d="M52 234.862h94.779v25.834H52z"/>
    <path id="P307" class="cls-3" style="fill:url(#unavailable-1) rgb(215, 6, 59);cursor:pointer;stroke:rgb(116, 119, 130)" d="M52 260.697h94.779v25.834H52z"/>
  </g>
  <g id="Desk_Labels" data-name="Desk Labels"/>
  <path style="stroke: rgb(116, 119, 130); stroke-width: 4px; fill: none; stroke-miterlimit: 10;" d="M 359.514 156.384 L 518.316 156.384 L 518.316 280.101 L 359.514 280.101 Z" id="Exterior_Wall" data-name="Exterior Wall"/>
  <g id="Building_Labels" data-name="Building Labels" transform="matrix(0.391126, 0, 0, 0.320344, 358.731445, 155.743576)" style="">
    <path class="cls-4" d="M790.692 84.663a3.129 3.129 0 0 0 1.948.825c.594 0 1.133-.308 1.133-.946 0-1.397-3.686-1.155-3.686-3.554a2.402 2.402 0 0 1 2.619-2.266 3.32 3.32 0 0 1 2.332.836l-.616 1.155a2.852 2.852 0 0 0-1.727-.682c-.66 0-1.177.385-1.177.935 0 1.387 3.674 1.046 3.674 3.543a2.334 2.334 0 0 1-2.574 2.288 3.78 3.78 0 0 1-2.696-1.067ZM796.39 78.854h1.398v2.707c0 .274-.022.472-.022.472h.022a2.16 2.16 0 0 1 1.936-1.111c1.243 0 1.947.65 1.947 2.135v3.608h-1.386v-3.322c0-.683-.176-1.145-.891-1.145a1.578 1.578 0 0 0-1.519 1.166 2.534 2.534 0 0 0-.087.727v2.574h-1.398ZM805.982 83.145h.187v-.078c0-.737-.462-.99-1.078-.99a3.004 3.004 0 0 0-1.54.54l-.528-1.002a3.784 3.784 0 0 1 2.2-.693 2.083 2.083 0 0 1 2.333 2.233v3.51h-1.287v-.462a3.583 3.583 0 0 1 .022-.396h-.022a1.816 1.816 0 0 1-1.706.99 1.763 1.763 0 0 1-1.903-1.75c0-1.781 2.41-1.902 3.322-1.902Zm-1.067 2.563a1.441 1.441 0 0 0 1.265-1.475v-.131h-.242c-.715 0-1.87.1-1.87.88a.749.749 0 0 0 .847.726ZM809.007 81.055h1.342v.967a3.811 3.811 0 0 1-.022.396h.022a1.93 1.93 0 0 1 1.782-1.44 1.638 1.638 0 0 1 .253.021v1.375a2.469 2.469 0 0 0-.33-.021 1.588 1.588 0 0 0-1.529 1.176 2.997 2.997 0 0 0-.12.913v2.223h-1.398ZM815.783 80.922a2.427 2.427 0 0 1 2.487 2.663c0 .165-.034.539-.034.539h-3.872a1.597 1.597 0 0 0 1.683 1.485 2.77 2.77 0 0 0 1.617-.616l.54 1.001a3.508 3.508 0 0 1-2.256.803 2.875 2.875 0 0 1-3.014-2.938 2.774 2.774 0 0 1 2.85-2.937Zm1.078 2.245A1.083 1.083 0 0 0 815.75 82a1.308 1.308 0 0 0-1.342 1.167ZM821.58 80.922a1.758 1.758 0 0 1 1.617.716h.022s-.011-.144-.011-.32v-2.464h1.397v7.811h-1.32v-.462a2.857 2.857 0 0 1 .022-.363h-.022a1.949 1.949 0 0 1-1.76.957c-1.519 0-2.486-1.2-2.486-2.938 0-1.782 1.056-2.937 2.54-2.937Zm.264 4.698c.726 0 1.408-.528 1.408-1.771 0-.87-.462-1.728-1.397-1.728-.77 0-1.408.627-1.408 1.738 0 1.068.572 1.761 1.397 1.761ZM829.037 78.854h3.014a2.394 2.394 0 0 1 2.487 2.542 2.421 2.421 0 0 1-2.487 2.574h-1.595v2.695h-1.419Zm2.75 3.883a1.228 1.228 0 0 0 1.31-1.341 1.21 1.21 0 0 0-1.287-1.32h-1.354v2.661ZM838.42 83.145h.187v-.078c0-.737-.462-.99-1.078-.99a3.004 3.004 0 0 0-1.54.54l-.528-1.002a3.784 3.784 0 0 1 2.2-.693 2.083 2.083 0 0 1 2.333 2.233v3.51h-1.287v-.462a3.583 3.583 0 0 1 .022-.396h-.022a1.816 1.816 0 0 1-1.706.99 1.763 1.763 0 0 1-1.903-1.75c0-1.781 2.41-1.902 3.322-1.902Zm-1.067 2.563a1.441 1.441 0 0 0 1.265-1.475v-.131h-.242c-.715 0-1.87.1-1.87.88a.749.749 0 0 0 .847.726ZM841.445 81.055h1.342v.967a3.811 3.811 0 0 1-.022.396h.022a1.93 1.93 0 0 1 1.782-1.44 1.638 1.638 0 0 1 .253.021v1.375a2.469 2.469 0 0 0-.33-.021 1.589 1.589 0 0 0-1.53 1.176 3.013 3.013 0 0 0-.12.913v2.223h-1.397ZM845.768 78.854h1.397v4.18h.693l1.353-1.98h1.551l-1.77 2.509v.022l1.99 3.08h-1.606l-1.485-2.453h-.726v2.453h-1.397ZM851.84 78.854h1.386v1.243h-1.387Zm0 2.2h1.397v5.611h-1.398ZM854.776 81.055h1.343v.648a3.474 3.474 0 0 1-.022.385h.022a2.177 2.177 0 0 1 1.99-1.166c1.244 0 1.948.65 1.948 2.135v3.608h-1.386v-3.322c0-.683-.176-1.145-.891-1.145a1.55 1.55 0 0 0-1.508 1.145 2.372 2.372 0 0 0-.098.748v2.574h-1.398ZM863.643 87.787c.857 0 1.584-.363 1.584-1.364v-.33a2.704 2.704 0 0 1 .022-.297h-.022a1.712 1.712 0 0 1-1.562.759 2.575 2.575 0 0 1-2.52-2.838 2.508 2.508 0 0 1 2.486-2.795 1.906 1.906 0 0 1 1.661.716h.034a1.026 1.026 0 0 1-.012-.155v-.428h1.31v5.27c0 1.924-1.497 2.65-2.96 2.65a4.47 4.47 0 0 1-1.99-.484l.417-1.067a3.769 3.769 0 0 0 1.552.363Zm1.617-4.06c0-1.276-.627-1.617-1.386-1.617-.848 0-1.32.617-1.32 1.563 0 .978.506 1.705 1.407 1.705.672 0 1.299-.385 1.299-1.65ZM620.304 84.663h-2.74l-.66 2.002h-1.463l2.75-7.811h1.486l2.75 7.811h-1.463Zm-1.375-4.456s-.177.77-.33 1.21l-.693 2.09h2.046l-.693-2.09c-.143-.44-.308-1.21-.308-1.21ZM623.372 84.993a2.347 2.347 0 0 0 1.53.616c.395 0 .737-.176.737-.506 0-.836-2.729-.726-2.729-2.53 0-1.046.935-1.651 2.145-1.651a2.686 2.686 0 0 1 1.882.639l-.518 1.034a2.13 2.13 0 0 0-1.375-.485c-.363 0-.715.155-.715.506 0 .792 2.729.694 2.729 2.498 0 .935-.814 1.683-2.145 1.683a3.14 3.14 0 0 1-2.18-.825ZM628.344 84.993a2.347 2.347 0 0 0 1.53.616c.396 0 .737-.176.737-.506 0-.836-2.729-.726-2.729-2.53 0-1.046.935-1.651 2.145-1.651a2.686 2.686 0 0 1 1.882.639l-.517 1.034a2.13 2.13 0 0 0-1.375-.485c-.364 0-.716.155-.716.506 0 .792 2.729.694 2.729 2.498 0 .935-.814 1.683-2.145 1.683a3.14 3.14 0 0 1-2.179-.825ZM633.151 78.854h1.387v1.243h-1.387Zm0 2.2h1.398v5.611h-1.398ZM638.212 87.787c.858 0 1.584-.363 1.584-1.364v-.33a2.705 2.705 0 0 1 .022-.297h-.022a1.712 1.712 0 0 1-1.562.759 2.575 2.575 0 0 1-2.52-2.838 2.508 2.508 0 0 1 2.487-2.795 1.906 1.906 0 0 1 1.66.716h.034a1.026 1.026 0 0 1-.011-.155v-.428h1.31v5.27c0 1.924-1.497 2.65-2.96 2.65a4.47 4.47 0 0 1-1.991-.484l.418-1.067a3.769 3.769 0 0 0 1.55.363Zm1.617-4.06c0-1.276-.627-1.617-1.386-1.617-.847 0-1.32.617-1.32 1.563 0 .978.506 1.705 1.408 1.705.671 0 1.298-.385 1.298-1.65ZM642.732 81.055h1.343v.648a3.472 3.472 0 0 1-.022.385h.022a2.177 2.177 0 0 1 1.99-1.166c1.244 0 1.948.65 1.948 2.135v3.608h-1.386v-3.322c0-.683-.176-1.145-.891-1.145a1.55 1.55 0 0 0-1.507 1.145 2.372 2.372 0 0 0-.1.748v2.574h-1.397ZM651.929 80.922a2.427 2.427 0 0 1 2.486 2.663c0 .165-.033.54-.033.54h-3.873a1.597 1.597 0 0 0 1.683 1.484 2.77 2.77 0 0 0 1.618-.616l.54 1.001a3.508 3.508 0 0 1-2.256.803 2.875 2.875 0 0 1-3.015-2.938 2.774 2.774 0 0 1 2.85-2.937Zm1.078 2.245A1.083 1.083 0 0 0 651.896 82a1.308 1.308 0 0 0-1.343 1.167ZM657.725 80.922a1.758 1.758 0 0 1 1.617.716h.022s-.01-.144-.01-.32v-2.464h1.397v7.811h-1.32v-.462a2.855 2.855 0 0 1 .022-.363h-.022a1.949 1.949 0 0 1-1.76.957c-1.52 0-2.487-1.2-2.487-2.938 0-1.782 1.056-2.937 2.541-2.937Zm.264 4.698c.726 0 1.408-.528 1.408-1.771 0-.87-.461-1.728-1.397-1.728-.77 0-1.408.627-1.408 1.738 0 1.068.572 1.761 1.397 1.761ZM665.183 78.854h3.014a2.394 2.394 0 0 1 2.486 2.542 2.421 2.421 0 0 1-2.486 2.574h-1.595v2.695h-1.42Zm2.75 3.883a1.228 1.228 0 0 0 1.31-1.341 1.21 1.21 0 0 0-1.288-1.32h-1.353v2.661ZM674.566 83.145h.187v-.078c0-.737-.462-.99-1.078-.99a3.004 3.004 0 0 0-1.54.54l-.529-1.002a3.784 3.784 0 0 1 2.2-.693 2.083 2.083 0 0 1 2.333 2.233v3.51h-1.287v-.462a3.584 3.584 0 0 1 .022-.396h-.022a1.816 1.816 0 0 1-1.706.99 1.763 1.763 0 0 1-1.903-1.75c0-1.781 2.41-1.902 3.323-1.902Zm-1.067 2.563a1.441 1.441 0 0 0 1.265-1.475v-.131h-.242c-.715 0-1.87.1-1.87.88a.749.749 0 0 0 .847.726ZM677.59 81.055h1.343v.967a3.81 3.81 0 0 1-.022.396h.022a1.93 1.93 0 0 1 1.782-1.44 1.638 1.638 0 0 1 .253.021v1.375a2.469 2.469 0 0 0-.33-.021 1.589 1.589 0 0 0-1.53 1.176 3.013 3.013 0 0 0-.12.913v2.223h-1.398ZM681.913 78.854h1.398v4.18h.692l1.353-1.98h1.552l-1.771 2.509v.022l1.99 3.08h-1.606l-1.484-2.453h-.726v2.453h-1.398ZM687.985 78.854h1.386v1.243h-1.386Zm0 2.2h1.397v5.611h-1.397ZM690.922 81.055h1.342v.648a3.474 3.474 0 0 1-.022.385h.022a2.177 2.177 0 0 1 1.991-1.166c1.244 0 1.948.65 1.948 2.135v3.608h-1.387v-3.322c0-.683-.175-1.145-.89-1.145a1.55 1.55 0 0 0-1.508 1.145 2.372 2.372 0 0 0-.099.748v2.574h-1.397ZM699.788 87.787c.858 0 1.584-.363 1.584-1.364v-.33a2.705 2.705 0 0 1 .022-.297h-.022a1.712 1.712 0 0 1-1.562.759 2.575 2.575 0 0 1-2.52-2.838 2.508 2.508 0 0 1 2.487-2.795 1.906 1.906 0 0 1 1.661.716h.033a1.026 1.026 0 0 1-.011-.155v-.428h1.31v5.27c0 1.924-1.497 2.65-2.96 2.65a4.47 4.47 0 0 1-1.991-.484l.418-1.067a3.769 3.769 0 0 0 1.551.363Zm1.617-4.06c0-1.276-.627-1.617-1.386-1.617-.847 0-1.32.617-1.32 1.563 0 .978.506 1.705 1.408 1.705.671 0 1.298-.385 1.298-1.65Z" transform="translate(-560.095 -26.854)" style="fill:rgb(139, 139, 139)"/>
    <path class="cls-4" d="M790.692 84.663a3.129 3.129 0 0 0 1.948.825c.594 0 1.133-.308 1.133-.946 0-1.397-3.686-1.155-3.686-3.554a2.402 2.402 0 0 1 2.619-2.266 3.32 3.32 0 0 1 2.332.836l-.616 1.155a2.852 2.852 0 0 0-1.727-.682c-.66 0-1.177.385-1.177.935 0 1.387 3.674 1.046 3.674 3.543a2.334 2.334 0 0 1-2.574 2.288 3.78 3.78 0 0 1-2.696-1.067ZM796.39 78.854h1.398v2.707c0 .274-.022.472-.022.472h.022a2.16 2.16 0 0 1 1.936-1.111c1.243 0 1.947.65 1.947 2.135v3.608h-1.386v-3.322c0-.683-.176-1.145-.891-1.145a1.578 1.578 0 0 0-1.519 1.166 2.534 2.534 0 0 0-.087.727v2.574h-1.398ZM805.982 83.145h.187v-.078c0-.737-.462-.99-1.078-.99a3.004 3.004 0 0 0-1.54.54l-.528-1.002a3.784 3.784 0 0 1 2.2-.693 2.083 2.083 0 0 1 2.333 2.233v3.51h-1.287v-.462a3.583 3.583 0 0 1 .022-.396h-.022a1.816 1.816 0 0 1-1.706.99 1.763 1.763 0 0 1-1.903-1.75c0-1.781 2.41-1.902 3.322-1.902Zm-1.067 2.563a1.441 1.441 0 0 0 1.265-1.475v-.131h-.242c-.715 0-1.87.1-1.87.88a.749.749 0 0 0 .847.726ZM809.007 81.055h1.342v.967a3.811 3.811 0 0 1-.022.396h.022a1.93 1.93 0 0 1 1.782-1.44 1.638 1.638 0 0 1 .253.021v1.375a2.469 2.469 0 0 0-.33-.021 1.588 1.588 0 0 0-1.529 1.176 2.997 2.997 0 0 0-.12.913v2.223h-1.398ZM815.783 80.922a2.427 2.427 0 0 1 2.487 2.663c0 .165-.034.539-.034.539h-3.872a1.597 1.597 0 0 0 1.683 1.485 2.77 2.77 0 0 0 1.617-.616l.54 1.001a3.508 3.508 0 0 1-2.256.803 2.875 2.875 0 0 1-3.014-2.938 2.774 2.774 0 0 1 2.85-2.937Zm1.078 2.245A1.083 1.083 0 0 0 815.75 82a1.308 1.308 0 0 0-1.342 1.167ZM821.58 80.922a1.758 1.758 0 0 1 1.617.716h.022s-.011-.144-.011-.32v-2.464h1.397v7.811h-1.32v-.462a2.857 2.857 0 0 1 .022-.363h-.022a1.949 1.949 0 0 1-1.76.957c-1.519 0-2.486-1.2-2.486-2.938 0-1.782 1.056-2.937 2.54-2.937Zm.264 4.698c.726 0 1.408-.528 1.408-1.771 0-.87-.462-1.728-1.397-1.728-.77 0-1.408.627-1.408 1.738 0 1.068.572 1.761 1.397 1.761ZM829.037 78.854h3.014a2.394 2.394 0 0 1 2.487 2.542 2.421 2.421 0 0 1-2.487 2.574h-1.595v2.695h-1.419Zm2.75 3.883a1.228 1.228 0 0 0 1.31-1.341 1.21 1.21 0 0 0-1.287-1.32h-1.354v2.661ZM838.42 83.145h.187v-.078c0-.737-.462-.99-1.078-.99a3.004 3.004 0 0 0-1.54.54l-.528-1.002a3.784 3.784 0 0 1 2.2-.693 2.083 2.083 0 0 1 2.333 2.233v3.51h-1.287v-.462a3.583 3.583 0 0 1 .022-.396h-.022a1.816 1.816 0 0 1-1.706.99 1.763 1.763 0 0 1-1.903-1.75c0-1.781 2.41-1.902 3.322-1.902Zm-1.067 2.563a1.441 1.441 0 0 0 1.265-1.475v-.131h-.242c-.715 0-1.87.1-1.87.88a.749.749 0 0 0 .847.726ZM841.445 81.055h1.342v.967a3.811 3.811 0 0 1-.022.396h.022a1.93 1.93 0 0 1 1.782-1.44 1.638 1.638 0 0 1 .253.021v1.375a2.469 2.469 0 0 0-.33-.021 1.589 1.589 0 0 0-1.53 1.176 3.013 3.013 0 0 0-.12.913v2.223h-1.397ZM845.768 78.854h1.397v4.18h.693l1.353-1.98h1.551l-1.77 2.509v.022l1.99 3.08h-1.606l-1.485-2.453h-.726v2.453h-1.397ZM851.84 78.854h1.386v1.243h-1.387Zm0 2.2h1.397v5.611h-1.398ZM854.776 81.055h1.343v.648a3.474 3.474 0 0 1-.022.385h.022a2.177 2.177 0 0 1 1.99-1.166c1.244 0 1.948.65 1.948 2.135v3.608h-1.386v-3.322c0-.683-.176-1.145-.891-1.145a1.55 1.55 0 0 0-1.508 1.145 2.372 2.372 0 0 0-.098.748v2.574h-1.398ZM863.643 87.787c.857 0 1.584-.363 1.584-1.364v-.33a2.704 2.704 0 0 1 .022-.297h-.022a1.712 1.712 0 0 1-1.562.759 2.575 2.575 0 0 1-2.52-2.838 2.508 2.508 0 0 1 2.486-2.795 1.906 1.906 0 0 1 1.661.716h.034a1.026 1.026 0 0 1-.012-.155v-.428h1.31v5.27c0 1.924-1.497 2.65-2.96 2.65a4.47 4.47 0 0 1-1.99-.484l.417-1.067a3.769 3.769 0 0 0 1.552.363Zm1.617-4.06c0-1.276-.627-1.617-1.386-1.617-.848 0-1.32.617-1.32 1.563 0 .978.506 1.705 1.407 1.705.672 0 1.299-.385 1.299-1.65ZM620.304 84.663h-2.74l-.66 2.002h-1.463l2.75-7.811h1.486l2.75 7.811h-1.463Zm-1.375-4.456s-.177.77-.33 1.21l-.693 2.09h2.046l-.693-2.09c-.143-.44-.308-1.21-.308-1.21ZM623.372 84.993a2.347 2.347 0 0 0 1.53.616c.395 0 .737-.176.737-.506 0-.836-2.729-.726-2.729-2.53 0-1.046.935-1.651 2.145-1.651a2.686 2.686 0 0 1 1.882.639l-.518 1.034a2.13 2.13 0 0 0-1.375-.485c-.363 0-.715.155-.715.506 0 .792 2.729.694 2.729 2.498 0 .935-.814 1.683-2.145 1.683a3.14 3.14 0 0 1-2.18-.825ZM628.344 84.993a2.347 2.347 0 0 0 1.53.616c.396 0 .737-.176.737-.506 0-.836-2.729-.726-2.729-2.53 0-1.046.935-1.651 2.145-1.651a2.686 2.686 0 0 1 1.882.639l-.517 1.034a2.13 2.13 0 0 0-1.375-.485c-.364 0-.716.155-.716.506 0 .792 2.729.694 2.729 2.498 0 .935-.814 1.683-2.145 1.683a3.14 3.14 0 0 1-2.179-.825ZM633.151 78.854h1.387v1.243h-1.387Zm0 2.2h1.398v5.611h-1.398ZM638.212 87.787c.858 0 1.584-.363 1.584-1.364v-.33a2.705 2.705 0 0 1 .022-.297h-.022a1.712 1.712 0 0 1-1.562.759 2.575 2.575 0 0 1-2.52-2.838 2.508 2.508 0 0 1 2.487-2.795 1.906 1.906 0 0 1 1.66.716h.034a1.026 1.026 0 0 1-.011-.155v-.428h1.31v5.27c0 1.924-1.497 2.65-2.96 2.65a4.47 4.47 0 0 1-1.991-.484l.418-1.067a3.769 3.769 0 0 0 1.55.363Zm1.617-4.06c0-1.276-.627-1.617-1.386-1.617-.847 0-1.32.617-1.32 1.563 0 .978.506 1.705 1.408 1.705.671 0 1.298-.385 1.298-1.65ZM642.732 81.055h1.343v.648a3.472 3.472 0 0 1-.022.385h.022a2.177 2.177 0 0 1 1.99-1.166c1.244 0 1.948.65 1.948 2.135v3.608h-1.386v-3.322c0-.683-.176-1.145-.891-1.145a1.55 1.55 0 0 0-1.507 1.145 2.372 2.372 0 0 0-.1.748v2.574h-1.397ZM651.929 80.922a2.427 2.427 0 0 1 2.486 2.663c0 .165-.033.54-.033.54h-3.873a1.597 1.597 0 0 0 1.683 1.484 2.77 2.77 0 0 0 1.618-.616l.54 1.001a3.508 3.508 0 0 1-2.256.803 2.875 2.875 0 0 1-3.015-2.938 2.774 2.774 0 0 1 2.85-2.937Zm1.078 2.245A1.083 1.083 0 0 0 651.896 82a1.308 1.308 0 0 0-1.343 1.167ZM657.725 80.922a1.758 1.758 0 0 1 1.617.716h.022s-.01-.144-.01-.32v-2.464h1.397v7.811h-1.32v-.462a2.855 2.855 0 0 1 .022-.363h-.022a1.949 1.949 0 0 1-1.76.957c-1.52 0-2.487-1.2-2.487-2.938 0-1.782 1.056-2.937 2.541-2.937Zm.264 4.698c.726 0 1.408-.528 1.408-1.771 0-.87-.461-1.728-1.397-1.728-.77 0-1.408.627-1.408 1.738 0 1.068.572 1.761 1.397 1.761ZM665.183 78.854h3.014a2.394 2.394 0 0 1 2.486 2.542 2.421 2.421 0 0 1-2.486 2.574h-1.595v2.695h-1.42Zm2.75 3.883a1.228 1.228 0 0 0 1.31-1.341 1.21 1.21 0 0 0-1.288-1.32h-1.353v2.661ZM674.566 83.145h.187v-.078c0-.737-.462-.99-1.078-.99a3.004 3.004 0 0 0-1.54.54l-.529-1.002a3.784 3.784 0 0 1 2.2-.693 2.083 2.083 0 0 1 2.333 2.233v3.51h-1.287v-.462a3.584 3.584 0 0 1 .022-.396h-.022a1.816 1.816 0 0 1-1.706.99 1.763 1.763 0 0 1-1.903-1.75c0-1.781 2.41-1.902 3.323-1.902Zm-1.067 2.563a1.441 1.441 0 0 0 1.265-1.475v-.131h-.242c-.715 0-1.87.1-1.87.88a.749.749 0 0 0 .847.726ZM677.59 81.055h1.343v.967a3.81 3.81 0 0 1-.022.396h.022a1.93 1.93 0 0 1 1.782-1.44 1.638 1.638 0 0 1 .253.021v1.375a2.469 2.469 0 0 0-.33-.021 1.589 1.589 0 0 0-1.53 1.176 3.013 3.013 0 0 0-.12.913v2.223h-1.398ZM681.913 78.854h1.398v4.18h.692l1.353-1.98h1.552l-1.771 2.509v.022l1.99 3.08h-1.606l-1.484-2.453h-.726v2.453h-1.398ZM687.985 78.854h1.386v1.243h-1.386Zm0 2.2h1.397v5.611h-1.397ZM690.922 81.055h1.342v.648a3.474 3.474 0 0 1-.022.385h.022a2.177 2.177 0 0 1 1.991-1.166c1.244 0 1.948.65 1.948 2.135v3.608h-1.387v-3.322c0-.683-.175-1.145-.89-1.145a1.55 1.55 0 0 0-1.508 1.145 2.372 2.372 0 0 0-.099.748v2.574h-1.397ZM699.788 87.787c.858 0 1.584-.363 1.584-1.364v-.33a2.705 2.705 0 0 1 .022-.297h-.022a1.712 1.712 0 0 1-1.562.759 2.575 2.575 0 0 1-2.52-2.838 2.508 2.508 0 0 1 2.487-2.795 1.906 1.906 0 0 1 1.661.716h.033a1.026 1.026 0 0 1-.011-.155v-.428h1.31v5.27c0 1.924-1.497 2.65-2.96 2.65a4.47 4.47 0 0 1-1.991-.484l.418-1.067a3.769 3.769 0 0 0 1.551.363Zm1.617-4.06c0-1.276-.627-1.617-1.386-1.617-.847 0-1.32.617-1.32 1.563 0 .978.506 1.705 1.408 1.705.671 0 1.298-.385 1.298-1.65Z" transform="translate(-560.095 -26.854)" style="fill:rgb(139, 139, 139)"/>
  </g>
  <text style="fill: rgb(255, 255, 255); font-family: Arial, sans-serif; font-size: 17.6px; white-space: pre;" x="337.458" y="200.866" transform="matrix(0.391126, 0, 0, 0.320344, 251.276703, 121.691551)"> </text>
  <text style="fill: rgb(255, 255, 255); font-family: Arial, sans-serif; font-size: 10px; white-space: pre;" x="82.854" y="92.942" transform="matrix(0.45427, 0, 0, 0.320344, 353.680237, 156.482788)">100</text>
  <text style="white-space: pre; fill: rgb(51, 51, 51); font-family: Arial, sans-serif; font-size: 10.8px;" x="390.301" y="198.701" transform="matrix(0.391126, 0, 0, 0.320344, 251.276703, 121.691551)"> </text>
  <text style="fill: rgb(255, 255, 255); font-family: Arial, sans-serif; font-size: 10.8px; white-space: pre;" x="359.903" y="228.586" transform="matrix(0.391126, 0, 0, 0.320344, 251.276703, 121.691551)">227</text>
  <text style="fill: rgb(255, 255, 255); font-family: Arial, sans-serif; font-size: 10.8px; white-space: pre;" x="359.519" y="254.367" transform="matrix(0.391126, 0, 0, 0.320344, 251.276703, 121.691551)">228</text>
  <text style="fill: rgb(255, 255, 255); font-family: Arial, sans-serif; font-size: 10.8px; white-space: pre;" x="360.288" y="279.377" transform="matrix(0.391126, 0, 0, 0.320344, 251.276703, 121.691551)">229</text>
  <text style="fill: rgb(255, 255, 255); font-family: Arial, sans-serif; font-size: 10.8px; white-space: pre;" x="359.519" y="306.312" transform="matrix(0.391126, 0, 0, 0.320344, 251.276703, 121.691551)">230</text>
  <text style="fill: rgb(255, 255, 255); font-family: Arial, sans-serif; font-size: 10.8px; white-space: pre;" x="360.288" y="333.247" transform="matrix(0.391126, 0, 0, 0.320344, 251.276703, 121.691551)">235</text>
  <text style="fill: rgb(255, 255, 255); font-family: Arial, sans-serif; font-size: 10.8px; white-space: pre;" x="359.366" y="357.566" transform="matrix(0.391126, 0, 0, 0.320344, 251.276703, 121.691551)">244</text>
  <text style="fill: rgb(255, 255, 255); font-family: Arial, sans-serif; font-size: 10.8px; white-space: pre;" x="360.288" y="384.04" transform="matrix(0.391126, 0, 0, 0.320344, 251.276703, 121.691551)">307</text>
  <text style="fill: rgb(255, 255, 255); font-family: Arial, sans-serif; font-size: 10.8px; white-space: pre;" transform="matrix(0.391126, 0, 0, 0.320344, 313.602997, 178.364044)"><tspan x="328.355" y="25.066">01</tspan><tspan x="328.355" dy="1em">​</tspan><tspan x="328.355" dy="1em">​</tspan></text>
  <text style="fill: rgb(255, 255, 255); font-family: Arial, sans-serif; font-size: 10.8px; white-space: pre;" x="487.336" y="228.825" transform="matrix(0.391126, 0, 0, 0.320344, 251.276703, 121.691551)">02</text>
  <text style="fill: rgb(255, 255, 255); font-family: Arial, sans-serif; font-size: 10.8px; white-space: pre;" x="487.654" y="254.601" transform="matrix(0.391126, 0, 0, 0.320344, 251.276703, 121.691551)">03</text>
  <text style="fill: rgb(255, 255, 255); font-family: Arial, sans-serif; font-size: 10.8px; white-space: pre;" x="487.296" y="281.052" transform="matrix(0.391126, 0, 0, 0.320344, 251.276703, 121.691551)">04</text>
  <text style="fill: rgb(255, 255, 255); font-family: Arial, sans-serif; font-size: 10.8px; white-space: pre;" x="486.596" y="305.612" transform="matrix(0.391126, 0, 0, 0.320344, 251.276703, 121.691551)">05</text>
  <text style="fill: rgb(255, 255, 255); font-family: Arial, sans-serif; font-size: 10.8px; white-space: pre;" x="487.297" y="331.546" transform="matrix(0.391126, 0, 0, 0.320344, 251.276703, 121.691551)">06</text>
  <text style="fill: rgb(255, 255, 255); font-family: Arial, sans-serif; font-size: 10.8px; white-space: pre;" x="488.152" y="357.635" transform="matrix(0.391126, 0, 0, 0.320344, 251.276703, 121.691551)">07</text>
  <text style="fill: rgb(255, 255, 255); font-family: Arial, sans-serif; font-size: 10.8px; white-space: pre;" x="488.067" y="382.644" transform="matrix(0.391126, 0, 0, 0.320344, 251.276703, 121.691551)">08</text>
  <text style="fill: rgb(255, 255, 255); font-family: Arial, sans-serif; font-size: 10.8px; white-space: pre;" x="487.682" y="407.962" transform="matrix(0.391126, 0, 0, 0.320344, 251.276703, 121.691551)">09</text>
  <text style="fill: rgb(255, 255, 255); font-family: Arial, sans-serif; font-size: 10.8px; white-space: pre;" x="488.45" y="435.281" transform="matrix(0.391126, 0, 0, 0.320344, 251.276703, 121.691551)">10</text>
  <text style="fill: rgb(255, 255, 255); font-family: Arial, sans-serif; font-size: 10.8px; white-space: pre;" transform="matrix(0.391126, 0, 0, 0.320344, 304.035767, 118.781975)"><tspan x="443.791" y="210.532">11</tspan><tspan x="443.791" dy="1em">​</tspan><tspan x="443.791" dy="1em">​</tspan></text>
  <text style="fill: rgb(255, 255, 255); font-family: Arial, sans-serif; font-size: 10.8px; white-space: pre;" x="578.685" y="228.15" transform="matrix(0.391126, 0, 0, 0.320344, 251.276703, 121.691551)">12</text>
  <text style="fill: rgb(255, 255, 255); font-family: Arial, sans-serif; font-size: 10.8px; white-space: pre;" x="578.525" y="254.623" transform="matrix(0.391126, 0, 0, 0.320344, 251.276703, 121.691551)">13</text>
  <text style="fill: rgb(255, 255, 255); font-family: Arial, sans-serif; font-size: 10.8px; white-space: pre;" x="579.759" y="280.706" transform="matrix(0.391126, 0, 0, 0.320344, 251.276703, 121.691551)">14</text>
  <text style="fill: rgb(255, 255, 255); font-family: Arial, sans-serif; font-size: 10.8px; white-space: pre;" x="579.374" y="306.185" transform="matrix(0.391126, 0, 0, 0.320344, 251.276703, 121.691551)">15</text>
  <text style="fill: rgb(255, 255, 255); font-family: Arial, sans-serif; font-size: 10.8px; white-space: pre;" x="579.682" y="331.516" transform="matrix(0.391126, 0, 0, 0.320344, 251.276703, 121.691551)">16</text>
  <text style="fill: rgb(255, 255, 255); font-family: Arial, sans-serif; font-size: 10.8px; white-space: pre;" x="579.915" y="356.368" transform="matrix(0.391126, 0, 0, 0.320344, 251.276703, 121.691551)">17</text>
  <text style="fill: rgb(255, 255, 255); font-family: Arial, sans-serif; font-size: 10.8px; white-space: pre;" x="579.368" y="382.802" transform="matrix(0.391126, 0, 0, 0.320344, 251.276703, 121.691551)">18</text>
  <text style="fill: rgb(255, 255, 255); font-family: Arial, sans-serif; font-size: 10.8px; white-space: pre;" x="580.005" y="408.111" transform="matrix(0.391126, 0, 0, 0.320344, 251.276703, 121.691551)">19</text>
  <text style="fill: rgb(255, 255, 255); font-family: Arial, sans-serif; font-size: 10.8px; white-space: pre;" x="581.546" y="435.735" transform="matrix(0.391126, 0, 0, 0.320344, 251.276703, 121.691551)">20</text>
</svg>
